<svg width="126" height="31" viewBox="0 0 126 31" fill="none" xmlns="http://www.w3.org/2000/svg">
<path d="M37.9973 10.1893C37.957 10.134 37.9211 10.0884 37.8867 10.0488C37.9196 10.0944 37.9517 10.1393 37.9846 10.1849C37.9884 10.1856 37.9921 10.1871 37.9973 10.1893Z" fill="#EAE9E6"/>
<path d="M32.8232 10.8108C32.8232 10.8153 32.8277 10.8123 32.83 10.8146C32.8397 10.7922 32.8412 10.7839 32.8232 10.8108Z" fill="#EAE9E6"/>
<path d="M38.0537 10.2803C38.0851 10.3266 38.1172 10.3737 38.1494 10.4215C38.1068 10.3565 38.0776 10.3132 38.0537 10.2803Z" fill="#EAE9E6"/>
<path d="M27.251 14.1055C27.2839 14.1772 27.2996 14.2251 27.31 14.2639C27.3048 14.2019 27.6 14.6339 27.251 14.1055Z" fill="#EAE9E6"/>
<path d="M37.9796 10.2026C37.9998 10.2138 38.0215 10.2362 38.0536 10.2803C38.0297 10.2467 38.0073 10.2145 37.9856 10.1832C37.9744 10.1779 37.9684 10.1794 37.9796 10.2026Z" fill="#EAE9E6"/>
<path d="M24.5706 28.7591C24.395 28.7569 24.2164 28.7554 24.0684 28.7539L24.5706 28.7591Z" fill="#EAE9E6"/>
<path d="M12.9003 9.62695C12.8712 9.66806 12.8465 9.70693 12.8315 9.73757L12.9003 9.62695Z" fill="#EAE9E6"/>
<path d="M22.3229 28.7589C22.222 28.7439 22.1144 28.7357 22.0038 28.7305C21.9806 28.7335 21.9537 28.7364 21.938 28.7409L22.3229 28.7589Z" fill="#EAE9E6"/>
<path d="M19.7392 28.7568C19.7078 28.7576 19.6801 28.7591 19.6592 28.7606C19.6809 28.7598 19.7115 28.7583 19.7392 28.7568Z" fill="#EAE9E6"/>
<path d="M11.7998 11.2334C11.8185 11.202 11.8402 11.1654 11.8648 11.1221C11.8439 11.1579 11.8215 11.1961 11.7998 11.2334Z" fill="#EAE9E6"/>
<path d="M50.2795 28.4187C50.2817 28.4142 50.2795 28.4104 50.2705 28.4067C50.1606 28.2497 50.0515 28.0935 49.9431 27.9396C49.8168 27.7527 49.692 27.5688 49.5701 27.3887L49.6651 27.5397C49.615 27.5158 49.5537 27.4298 49.4812 27.3117C49.4857 27.3162 49.4902 27.3207 49.4924 27.3237C49.4849 27.3132 49.4767 27.3027 49.4685 27.2923C49.3414 27.083 49.183 26.784 48.9961 26.5478C49.0671 26.6427 49.1194 26.6525 49.094 26.6308C48.7442 26.0919 48.3429 25.5522 47.7838 24.7689C47.7763 24.7577 47.7696 24.7457 47.7628 24.7353L47.8368 24.8138C47.6358 24.4841 47.2755 23.9654 47.0498 23.6149C47.0012 23.5633 46.9384 23.4773 46.9033 23.437C46.8495 23.3615 46.8016 23.295 46.7598 23.2337C46.5176 22.8241 46.2553 22.4474 45.9944 22.0826L45.9757 22.0452L45.9548 22.0266C45.8957 21.9451 45.8374 21.8636 45.7791 21.7829C45.7754 21.7747 45.7747 21.7709 45.7791 21.7754C45.7216 21.6984 45.6984 21.6685 45.6917 21.6618C45.6237 21.5669 45.5557 21.472 45.4891 21.377C45.3935 21.2335 45.2903 21.0833 45.1999 20.9495C45.096 20.7903 44.9966 20.6289 44.9046 20.4644C44.9809 20.5773 45.1012 20.7238 45.0407 20.6341L44.5092 19.8799C44.4943 19.8553 44.4749 19.8224 44.4479 19.779C44.3762 19.699 44.2843 19.5645 44.1871 19.415C44.1819 19.4031 44.1736 19.3866 44.1594 19.3619C44.1594 19.3649 44.1654 19.3776 44.1751 19.3963C44.0496 19.202 43.9158 18.9845 43.8059 18.8275C43.7745 18.829 43.3739 18.2086 43.0398 17.731C43.0457 17.7363 43.0211 17.6966 42.9762 17.6271C42.9217 17.5382 42.8731 17.4687 42.7901 17.3394L42.8051 17.3633L42.45 16.8005L42.5345 16.9477C42.5293 16.9425 42.524 16.9365 42.5181 16.9313C42.3805 16.7227 42.2423 16.5142 42.1428 16.361L42.1556 16.3714C42.0898 16.3139 41.8783 16.0022 41.6772 15.7092C41.6772 15.7032 41.6794 15.6995 41.6862 15.7017C41.6675 15.6688 41.6458 15.633 41.6249 15.5963C41.6488 15.627 41.6787 15.6674 41.7153 15.7182C41.7004 15.707 41.6921 15.704 41.6854 15.7017C41.6854 15.7032 41.6869 15.7047 41.6869 15.7047L41.7168 15.7204C41.7213 15.7271 41.7258 15.7324 41.731 15.7399L41.7183 15.7212L41.7213 15.7227C41.7213 15.7227 41.719 15.7212 41.7176 15.7197L41.5711 15.5029C41.5606 15.485 41.5516 15.4678 41.5434 15.4528C41.5531 15.464 41.5628 15.4753 41.5718 15.4857L41.5344 15.4364C41.509 15.3893 41.4986 15.3646 41.5202 15.3863C41.3147 15.1471 41.2512 14.9379 40.9597 14.6008C40.9604 14.5761 40.7735 14.3227 40.8431 14.3608C40.6054 14.0297 40.8759 14.4543 40.8423 14.4363C40.8416 14.4356 40.8408 14.4341 40.8401 14.4333C40.6913 14.2203 40.5351 13.9923 40.3684 13.7337C40.3654 13.7322 40.3647 13.7337 40.3654 13.7397C40.1913 13.4647 40.0059 13.1657 39.7959 12.8645C39.7936 12.8562 39.7892 12.8458 39.7824 12.8338C39.7809 12.8353 39.7847 12.8443 39.7922 12.8592C39.7062 12.7366 39.6158 12.6141 39.5208 12.4922C39.473 12.4115 39.538 12.4885 39.4259 12.3136C39.3482 12.2172 39.1755 11.9421 39.1523 11.9473C39.0686 11.824 39.0619 11.7949 39.035 11.744C38.8795 11.531 38.3429 10.726 38.4901 10.9854L38.5267 11.0422C38.5193 11.0317 38.511 11.0198 38.5021 11.0071C38.3541 10.7993 38.2061 10.5833 38.0596 10.365C38.0514 10.3471 38.0416 10.3276 38.0312 10.306C37.9916 10.2484 37.9617 10.211 37.937 10.1819C37.8757 10.09 37.8152 9.99803 37.7546 9.90609C37.7928 9.94197 37.8369 9.98607 37.8884 10.0466C37.7756 9.89638 37.6627 9.74614 37.5491 9.59516C37.4699 9.47557 37.3906 9.35673 37.3121 9.23863C37.3667 9.30291 37.4444 9.40307 37.4908 9.45613C37.3533 9.26479 37.1716 9.00767 37.0221 8.8081L37.0274 8.80586C36.91 8.63844 36.7837 8.45457 36.6611 8.27518C36.6716 8.27294 36.6731 8.25724 36.6611 8.22211C36.5976 8.15858 36.555 8.11149 36.5176 8.06665C36.3861 7.87605 36.2642 7.70115 36.1671 7.57109C36.0826 7.44552 35.978 7.26763 36.0221 7.31622C35.9346 7.19214 35.8778 7.11067 35.821 7.02995C35.818 7.02546 35.8143 7.02023 35.8113 7.01575L35.8659 7.0576L35.6782 6.80422C35.667 6.79301 35.6596 6.78703 35.6536 6.78554C35.6364 6.75938 35.6177 6.73247 35.5983 6.70257C35.5788 6.73172 35.5572 6.76461 35.5332 6.80048C35.5273 6.80048 35.5205 6.80347 35.5116 6.80796C35.5303 6.77956 35.5579 6.73695 35.5983 6.67491C35.614 6.69808 35.6424 6.73994 35.6753 6.79002C35.6446 6.74368 35.6162 6.70033 35.5983 6.67342C35.5654 6.7235 35.5347 6.76909 35.5063 6.8117C35.4533 6.84533 35.3486 6.96118 35.1408 7.24671L34.865 7.75272L34.7372 7.89025L34.9973 7.48215C34.8224 7.69592 34.7522 7.85736 34.6625 8.03152C34.6229 8.06067 34.5683 8.12196 34.501 8.21389L34.288 8.64815C34.2708 8.67431 34.2536 8.70047 34.2372 8.72589C34.2245 8.70272 34.3149 8.52184 34.1258 8.79241C34.0473 8.95236 34.1587 8.81707 34.1737 8.82455C34.1146 8.91723 34.0571 9.00842 34.0017 9.09811C33.9203 9.18706 33.9068 9.18855 33.7887 9.40979C33.7491 9.4382 33.7768 9.37466 33.8396 9.2633C33.7073 9.50621 33.4576 9.87545 33.3941 10.0324L33.3672 10.0758C33.1773 10.312 32.8694 10.871 32.8313 10.8135C32.7991 10.8905 32.6347 11.2014 32.5001 11.4249C32.4882 11.4436 32.4755 11.4623 32.4643 11.4802C32.6429 11.0639 31.9224 12.3166 31.9209 12.1656C31.7871 12.5034 31.2504 13.2666 30.941 13.8189C30.9552 13.786 30.9836 13.7218 31.0165 13.6769C30.8191 13.9729 30.7459 14.0484 30.6106 14.2338C30.6315 14.2951 30.4103 14.6695 30.2675 14.9423C30.2324 15.0014 30.2234 15.0223 30.2055 15.0574C29.9417 15.3684 30.2997 14.7884 30.1816 14.8736C30.2332 14.8803 29.8116 15.5358 29.9245 15.4327C29.7152 15.6943 29.7548 15.6651 29.6217 15.784C29.6509 15.8722 29.464 16.0515 29.3519 16.3079C29.2062 16.5015 29.1755 16.5179 29.1471 16.5441C29.1329 16.5568 29.1195 16.5725 29.0933 16.6129C29.0806 16.633 29.0649 16.6585 29.0432 16.6928C29.0395 16.7011 29.035 16.7115 29.0298 16.725C29.0111 16.7339 29.0171 16.7018 29.0156 16.6876C29.0156 16.6801 29.0141 16.6749 29.0118 16.6719C29.0156 16.6607 29.0417 16.6173 29.038 16.6226C29.029 16.6368 29.0201 16.6502 29.0118 16.6629C29.0044 16.6742 29.0096 16.6667 29.0081 16.6697V16.6719C29.0089 16.6764 29.0096 16.6794 29.0096 16.6816C29.0111 16.7033 29.0111 16.7115 29.0118 16.7183C29.0126 16.7437 29.0208 16.7631 29.0193 16.7922C29.0156 16.7982 29.0111 16.805 29.0074 16.8117L29.0021 16.8035C29.0021 16.8094 29.0044 16.8177 29.0074 16.8274C29.0074 16.8274 29.0074 16.8274 29.0081 16.8274C29.0081 16.8281 29.0066 16.8296 29.0059 16.8311C28.9946 16.8162 28.9857 16.8027 28.9782 16.7908C28.9745 16.784 28.9707 16.7773 28.9677 16.7728C28.9625 16.7631 28.9603 16.7571 28.9618 16.7571C28.9573 16.7511 28.9543 16.7474 28.9506 16.7429C28.9416 16.722 28.9423 16.7115 28.9483 16.7055C28.9543 16.6869 28.9827 16.6936 28.9363 16.5987C28.742 16.3236 28.5626 16.1173 28.4139 15.9088C28.3788 15.8527 28.3496 15.8079 28.3257 15.7712C28.3175 15.7473 28.3055 15.7219 28.3436 15.7638C28.0746 15.4319 27.6508 14.7091 27.3338 14.3242C27.3174 14.2906 27.3114 14.2726 27.3099 14.2629C27.3152 14.2846 27.3181 14.3018 27.3189 14.316C27.2897 14.2749 27.2606 14.2315 27.2232 14.174L27.3189 14.3257C27.3189 14.3309 27.3189 14.3362 27.3174 14.3399C27.2456 14.2405 27.138 14.0753 26.9967 13.866C26.99 13.8369 27.1672 14.1134 27.1066 14.0125C27.0678 13.9609 27.0289 13.9041 26.99 13.8451C27.0296 13.8877 27.132 14.0514 27.1888 14.1194C27.2008 14.1388 27.2128 14.1568 27.2232 14.174L27.1888 14.1194C27.206 14.1403 27.2195 14.1523 27.2247 14.1486C27.1089 13.9841 26.9825 13.8107 26.86 13.641C26.7695 13.4953 26.6753 13.3383 26.5722 13.1754C26.6866 13.3413 26.7905 13.4998 26.6537 13.2449L26.9586 13.7457C26.7792 13.3279 27.1492 14.0469 26.9945 13.656C26.5842 13.0027 26.5004 12.9482 26.0916 12.2964C25.9982 12.194 26.0505 12.2964 26.0176 12.2807C25.9055 12.1006 25.827 11.9608 25.6095 11.6446C25.6685 11.759 25.6947 11.8009 25.6058 11.6775C25.4234 11.3457 25.4623 11.2657 25.108 10.812C25.0474 10.7455 24.9951 10.7014 24.9323 10.6341C24.8232 10.4734 24.7111 10.3097 24.5907 10.1326L24.7372 10.2581C24.3329 9.63029 24.4353 9.94646 24.0391 9.27077C24.1341 9.37466 24.3762 9.75137 24.3202 9.65346C24.0802 9.205 24.0967 9.37093 23.8837 9.04504L23.8814 8.95012C23.4322 8.29461 22.9367 7.57109 22.4396 6.84458C22.4785 6.87747 22.5749 6.99482 22.4747 6.81394C21.8454 5.89832 21.1817 4.82725 20.6196 3.91462L20.3595 3.59621C20.3079 3.51624 20.2795 3.43776 20.3423 3.51923C20.1278 3.1612 20.3072 3.51624 20.1831 3.35778C20.0508 3.16046 20.0321 3.08198 20.1255 3.20082C19.9536 2.96463 19.7264 2.64622 19.4917 2.30688C19.3759 2.13647 19.2563 1.96082 19.1397 1.78891C18.9879 1.5572 18.8392 1.32923 18.7002 1.11621C18.6097 1.24627 18.523 1.37034 18.4416 1.48769C18.4064 1.53627 18.3728 1.58261 18.3399 1.62821C18.3137 1.66259 18.2883 1.69622 18.2644 1.72836L18.3384 1.59607C18.1217 1.89654 18.0551 2.06023 17.9557 2.2426C17.869 2.3749 17.7763 2.51542 17.6866 2.64547L17.7367 2.55877C17.6874 2.62978 17.6373 2.70153 17.588 2.77328L17.6007 2.75385C17.5177 2.86522 17.428 2.99976 17.3309 3.14925C16.712 4.06037 16.0968 4.9999 15.5923 5.65018C15.5422 5.82582 14.9577 6.56504 14.8763 6.7818C14.8195 6.86775 14.7709 6.94175 14.729 7.00827C14.4278 7.39545 14.4472 7.33864 13.9046 8.0958C13.7432 8.32675 13.7148 8.474 13.5271 8.76774L13.4845 8.74906L13.2588 9.16762L13.0727 9.34551L12.8993 9.62281C12.9748 9.51668 13.0712 9.40531 13.0712 9.42923C12.8021 9.86349 12.3484 10.442 12.3215 10.439L11.6772 11.4608C11.6772 11.4368 11.7363 11.3367 11.7998 11.2298C11.5733 11.608 11.737 11.2283 11.4642 11.7014C11.5173 11.6416 11.4627 11.7523 11.4627 11.768C11.2751 11.9967 10.8992 12.5513 10.6316 12.9684L10.6592 12.8719C10.151 13.6089 9.61431 14.4438 9.05074 15.2764C9.18229 15.0978 9.23237 15.0672 9.21368 15.1262C9.19798 15.1501 9.18229 15.1725 9.16584 15.1965C9.18079 15.1785 9.1935 15.1636 9.20471 15.1509C9.18752 15.192 9.15239 15.2548 9.10231 15.3318L8.99617 15.4028C8.91396 15.5769 9.18378 15.1576 8.99468 15.5022C8.95806 15.5552 8.9289 15.5941 8.90499 15.6233C8.93189 15.5709 8.93115 15.559 8.83772 15.6868C8.81978 15.6838 8.85491 15.5978 8.91545 15.4932L8.67328 15.8804C8.64637 15.8946 8.70019 15.8019 8.70019 15.7683C8.62021 15.9402 8.21884 16.3939 8.11046 16.6465L8.0843 16.66C7.5282 17.4963 7.27632 17.876 6.82337 18.5577C6.83832 18.5794 6.77703 18.6825 6.70154 18.8088C6.54682 19.0413 6.38911 19.2797 6.2613 19.4808C5.98848 19.8582 5.69548 20.2619 5.40025 20.7028C5.22983 20.9787 5.25375 20.9615 5.26645 20.9645C5.22908 21.022 5.19096 21.0788 5.15359 21.1356C5.02727 21.2918 4.82771 21.5826 4.97047 21.3337C4.48837 22.0572 4.35458 22.2583 3.76336 23.1866C3.76634 23.1829 3.76933 23.1799 3.77232 23.1761C3.72897 23.2441 3.68114 23.3181 3.6333 23.3899C3.63031 23.3906 3.62882 23.3899 3.62882 23.3869L3.65498 23.3413C3.60789 23.419 3.55781 23.4975 3.50624 23.5768C3.501 23.5842 3.49577 23.5924 3.49054 23.5992L3.60864 23.4026C3.35002 23.7733 3.1512 24.076 2.97032 24.3586C2.41871 25.1292 1.81777 25.9058 1.48292 26.4985L1.51057 26.4507L1.30428 26.784C1.1675 26.9873 1.03894 27.1802 0.915613 27.3678C0.955227 27.293 0.997831 27.2101 0.893189 27.3438C0.760145 27.5666 0.635323 27.7647 0.51648 27.9463C0.333358 28.2169 0.163689 28.4672 0 28.7094C0.324389 28.7117 0.635323 28.7139 0.954479 28.7154C1.16974 28.7154 1.39098 28.7124 1.63016 28.7012C2.33126 28.8126 4.11764 28.693 5.0639 28.7647L5.00934 28.7386C5.25375 28.7132 5.30532 28.7535 5.48545 28.7595C5.46004 28.7393 5.22011 28.7356 5.37184 28.7214C7.44374 28.69 9.64794 28.7595 11.7722 28.7834C12.5488 28.7901 12.2132 28.6474 13.1923 28.7102L12.9142 28.7587C14.4816 28.7004 16.12 28.761 17.6545 28.7109C17.5633 28.7221 17.5603 28.7371 17.4108 28.7363C17.7352 28.7715 18.6097 28.7378 18.615 28.7094C18.8541 28.7124 18.6703 28.7356 18.8175 28.7505C19.1427 28.7715 19.6337 28.7057 19.8064 28.7408C19.8251 28.7445 19.784 28.7483 19.7354 28.7513C20.0142 28.7423 20.6218 28.7558 20.4395 28.7191C21.0157 28.7386 21.5412 28.7012 22.0009 28.7251C22.3006 28.6795 22.9867 28.7468 23.0824 28.6825C23.0413 28.749 24.0922 28.7363 24.4562 28.7049C24.3344 28.7251 24.7731 28.7259 24.6304 28.7535C25.0459 28.7528 25.4271 28.7401 25.3546 28.7057C26.12 28.7857 26.8936 28.6414 27.3249 28.7438C28.5596 28.7079 29.7017 28.684 30.8124 28.6683C30.7721 28.7348 29.5851 28.675 29.6322 28.7445C30.6861 28.7169 31.2938 28.6601 32.3387 28.6758C32.6093 28.6847 32.1847 28.7049 32.0935 28.7161C33.1459 28.6885 34.1281 28.7221 35.0646 28.6862C34.8964 28.6459 35.747 28.6033 35.8509 28.5801C35.5796 28.6623 36.78 28.6003 36.2882 28.7087C36.41 28.7027 36.5617 28.6885 36.5341 28.6683C36.7142 28.6743 36.7718 28.6862 36.5886 28.7094C37.2501 28.693 37.0147 28.6608 37.6141 28.6616C37.6119 28.6765 37.4908 28.6818 37.4295 28.699C37.733 28.6705 38.0372 28.6421 38.5439 28.6541C38.5178 28.6616 38.5581 28.6713 38.4699 28.6735C39.3138 28.6668 39.9215 28.5988 40.8573 28.6257C40.5762 28.6892 41.1816 28.6466 41.2325 28.7019L41.7452 28.6855L41.5397 28.6586C41.9889 28.6593 42.3858 28.6197 42.7722 28.6377L42.4381 28.6601L43.2797 28.6496L42.8036 28.6287C43.258 28.6003 42.755 28.5592 43.3529 28.5741C43.2311 28.5794 43.8022 28.5741 44.0369 28.607H44.0354C44.2573 28.5898 44.4861 28.5711 44.8187 28.5846C44.9046 28.6025 44.7492 28.6451 44.8052 28.6571C45.0242 28.6108 45.8576 28.6444 46.1349 28.5951C46.0422 28.6063 46.0378 28.6354 46.0676 28.6414L46.2515 28.604C46.4593 28.616 46.4899 28.622 46.4563 28.6451C47.0827 28.6519 46.2575 28.5756 47.0005 28.6055C46.9422 28.6085 46.9698 28.6145 46.8487 28.6197C47.5947 28.6354 48.2905 28.5958 48.9759 28.6145C49.1785 28.6698 48.3772 28.6279 48.6082 28.675C49.2039 28.6623 49.8228 28.6489 50.4327 28.6362C50.3804 28.5614 50.3288 28.4882 50.2772 28.4142L50.2795 28.4187ZM39.7271 12.9571L39.7376 12.9855L39.4999 12.6342C39.5044 12.638 39.5104 12.6432 39.5163 12.6492C39.5866 12.7531 39.6569 12.8555 39.7264 12.9571H39.7271ZM43.0495 17.8095C43.0495 17.8095 43.0443 17.802 43.0413 17.7983C43.0435 17.8013 43.045 17.8035 43.0472 17.8065C43.0472 17.8073 43.0487 17.8088 43.0487 17.8095H43.0495ZM29.624 23.7524C29.7107 23.6126 29.7623 23.5835 29.7167 23.6777C29.9618 23.2292 30.4357 22.4137 30.7653 21.9869L30.7197 22.0819C30.9604 21.7395 30.9006 21.6371 31.1443 21.3322L31.1106 21.3987C31.6174 20.6453 32.1264 19.7805 32.5562 19.2326C32.5749 19.0884 33.0652 18.4919 33.0241 18.3955C33.341 17.9829 33.2737 18.116 33.6923 17.518C33.8014 17.3566 33.8037 17.2444 33.9263 17.0367L33.9674 17.0561L34.1041 16.7549L34.2439 16.6375L34.356 16.441C34.3052 16.5149 34.2357 16.5912 34.232 16.5725C34.4054 16.2646 34.7245 15.8654 34.7484 15.8707L35.1677 15.1471C35.1715 15.1658 35.1341 15.2376 35.0938 15.3131C35.238 15.044 35.1506 15.322 35.3217 14.9842C35.2836 15.0246 35.315 14.9446 35.312 14.9319C35.3643 14.8706 35.4346 14.7734 35.5116 14.6598C35.531 14.6314 35.5512 14.6015 35.5714 14.5716L35.5983 14.5268C35.6102 14.5402 35.6214 14.5537 35.6319 14.5656C35.6229 14.5716 35.6162 14.5798 35.611 14.5903L35.6185 14.603L35.6476 14.6471C35.6925 14.7129 35.7373 14.7794 35.7829 14.8467C35.8756 14.9805 35.9697 15.1165 36.0654 15.2548C36.2568 15.5313 36.4526 15.8161 36.6507 16.1016C36.5229 15.8871 36.5998 15.9035 36.7187 16.0695L36.7247 16.1637C36.8233 16.2563 36.62 15.9768 36.8016 16.1808C36.9429 16.3991 36.854 16.3565 36.7575 16.2414L36.9481 16.494C36.9467 16.5172 36.8988 16.4604 36.8727 16.4544C36.9698 16.5448 37.138 16.9328 37.286 17.0591L37.2845 17.0815C37.6806 17.6525 37.8608 17.9119 38.1829 18.3776C38.2233 18.3634 38.3399 18.5517 38.4625 18.6728C38.6844 19.0248 38.9161 19.4255 39.2002 19.8396C39.4147 20.1198 39.2869 19.9053 39.396 20.0227C39.3796 20.0653 39.6628 20.4779 39.4947 20.2783C39.837 20.7731 39.9312 20.9106 40.3834 21.5243C40.3497 21.4473 40.3034 21.3666 40.3408 21.3995C40.423 21.5101 40.5037 21.6685 40.4776 21.6626L40.4536 21.6349C40.9791 22.3106 41.4672 23.3301 41.9134 23.8496L41.8887 23.8204L42.1032 24.1015C42.1481 24.1612 42.1563 24.168 42.1727 24.1859L42.2258 24.2457C42.2594 24.301 42.2325 24.2749 42.2071 24.2524C42.1795 24.2278 42.157 24.2151 42.1541 24.2308C42.1653 24.2412 42.1757 24.2509 42.1847 24.2599C42.1742 24.2659 42.1556 24.2696 42.1346 24.2726C42.1055 24.2756 42.107 24.2771 42.0479 24.2778C41.9014 24.2764 41.7646 24.2756 41.6309 24.2749C41.364 24.2704 41.1091 24.2644 40.8124 24.2846C40.3273 24.1732 39.0911 24.2928 38.4363 24.221L38.4744 24.2472C38.3055 24.2726 38.2696 24.2323 38.1448 24.2263C38.1627 24.2465 38.3287 24.2502 38.2233 24.2644C36.7897 24.2958 35.2642 24.2263 33.794 24.2024C33.2565 24.1956 33.489 24.3384 32.8111 24.2756L33.0032 24.227C31.9186 24.2853 30.7848 24.2248 29.7227 24.2749C29.7862 24.2636 29.7877 24.2487 29.8916 24.2494C29.7765 24.2315 29.5612 24.2315 29.3781 24.2397C29.3878 24.2255 29.3983 24.2106 29.408 24.1956L29.5246 23.934C29.5605 23.8787 29.6068 23.8421 29.5754 23.9064C29.7451 23.6724 29.5605 23.8787 29.621 23.7531L29.624 23.7524ZM11.8903 18.764C11.8925 18.7864 11.8671 18.8462 11.7871 18.9793C11.7744 18.9807 11.7587 18.98 11.7527 18.9673L11.8903 18.764ZM28.2427 23.4751C28.1941 23.4004 28.1336 23.3069 28.0701 23.2083C28.0678 23.1791 28.0955 23.1941 28.1351 23.2561C28.1052 23.2277 28.1926 23.3772 28.2427 23.4751ZM27.8414 22.8622C27.7995 22.8002 27.7636 22.7471 27.7404 22.7135C27.7614 22.7441 27.7905 22.7875 27.8414 22.8622ZM18.7196 8.72589C18.7076 8.72439 18.6949 8.72215 18.6822 8.72065L18.6994 8.69524L18.7196 8.72589ZM18.6254 8.80512C18.6336 8.83427 18.6486 8.87388 18.6718 8.92471L18.6695 8.93816L18.674 8.93069C18.6972 8.98226 18.7286 9.04355 18.7704 9.12203L19.0231 9.43147L19.0657 9.55704L18.8803 9.27824C18.958 9.45389 19.047 9.53985 19.1367 9.64225C19.1397 9.67887 19.1598 9.73194 19.1972 9.80145L19.4663 10.0922C19.47 10.1468 19.3258 9.97486 19.4566 10.2021C19.5822 10.3381 19.411 10.0219 19.5934 10.2649C19.6711 10.4413 19.6195 10.4084 19.7645 10.581C19.7668 10.6169 19.7316 10.5833 19.6763 10.5138C19.8026 10.6685 19.9716 10.9488 20.059 11.0145C20.1353 11.2014 20.435 11.5706 20.37 11.5901C20.417 11.6342 20.6046 11.8547 20.7063 12.0064C20.4581 11.7702 21.077 12.5804 20.9589 12.5528C21.1525 12.7209 21.4732 13.2815 21.7452 13.6261C21.7273 13.6089 21.6914 13.5745 21.6735 13.5401C21.8035 13.7494 21.8252 13.8204 21.9007 13.9602C21.9665 13.955 22.187 14.2681 22.3305 14.4214C22.4493 14.7047 22.1735 14.3055 22.1802 14.4139C22.2109 14.3758 22.5061 14.8265 22.483 14.7196C22.5801 14.9319 22.5779 14.8952 22.6026 15.0208C22.6855 15.0148 22.7304 15.1942 22.8724 15.3295C23.0256 15.6285 22.8627 15.4386 23.0824 15.7331C23.1594 15.8916 22.9591 15.6322 22.9591 15.6322C23.1624 15.9454 23.0996 15.7496 23.1691 15.7989C23.4262 16.1637 23.2483 15.9932 23.3081 16.136C23.4726 16.361 23.631 16.512 23.7431 16.6869C23.7439 16.7048 23.7633 16.7399 23.7282 16.707C23.9255 16.9298 24.2081 17.4365 24.4413 17.6937C24.451 17.7176 24.4547 17.731 24.4547 17.7385C24.4472 17.6772 24.4659 17.6548 24.4883 17.6533C24.581 17.7931 24.6872 17.8947 24.6916 17.9665C24.6363 17.8798 24.6199 17.8805 24.584 17.8469L24.6931 17.9852C24.7365 18.1451 24.5474 17.7946 24.5152 17.8155C24.7163 18.0928 24.9704 18.403 25.102 18.6302C25.09 18.7034 24.7522 18.1264 24.9062 18.4433L24.6999 18.0935C24.8038 18.3963 24.5698 17.8843 24.655 18.169C24.9353 18.6235 25.0033 18.6549 25.2829 19.1078C25.3718 19.193 25.2956 19.0518 25.3845 19.137C25.8412 19.7424 25.605 19.7043 25.966 20.1333C26.0729 20.2357 26.1566 20.2477 26.345 20.5975L26.2239 20.5152C26.5019 20.951 26.4534 20.7178 26.718 21.1909C26.6469 21.1229 26.4795 20.8613 26.5169 20.9308C26.6716 21.2485 26.6798 21.1207 26.8271 21.3464L26.8159 21.4204C27.1305 21.8711 27.4788 22.3689 27.8272 22.8682C27.7965 22.848 27.7262 22.7695 27.7913 22.8973C27.9714 23.1537 28.153 23.4303 28.3309 23.7098C28.4408 23.8854 28.5514 24.0618 28.6605 24.2367C28.4871 24.248 28.313 24.2681 28.2345 24.245C28.2211 24.2412 28.2517 24.2375 28.2861 24.2345C28.0947 24.2442 27.6687 24.23 27.7958 24.2674C27.3974 24.248 27.0334 24.2853 26.715 24.2614C26.5079 24.307 26.0325 24.2397 25.9668 24.304C25.9952 24.2375 25.2679 24.2502 25.016 24.2816C25.1005 24.2614 24.797 24.2607 24.8957 24.233C24.6079 24.2338 24.3448 24.2465 24.3949 24.2808C23.865 24.2009 23.3298 24.3451 23.0316 24.2427C22.1773 24.2786 21.3865 24.3025 20.6181 24.3182C20.6458 24.2517 21.4679 24.3115 21.4343 24.242C20.7056 24.2696 20.2847 24.3264 19.562 24.3107C19.3751 24.3018 19.6681 24.2816 19.7316 24.2704C19.0036 24.298 18.3235 24.2644 17.6754 24.3003C17.792 24.3406 17.2031 24.3832 17.1313 24.4064C17.3189 24.3249 16.4885 24.3862 16.8286 24.2778C16.7449 24.2838 16.6387 24.298 16.6582 24.3182C16.5333 24.3122 16.4937 24.3003 16.6201 24.2771C16.1626 24.2935 16.3248 24.3257 15.9107 24.3249C15.9122 24.31 15.9959 24.3048 16.0385 24.2876C15.8285 24.316 15.6177 24.3444 15.2672 24.3324C15.2859 24.3249 15.2575 24.3152 15.3188 24.313C14.735 24.3197 14.3142 24.3877 13.6669 24.3608C13.8613 24.2973 13.4427 24.3399 13.4076 24.2846L13.0525 24.301L13.1953 24.3279C12.8844 24.3272 12.6093 24.3668 12.3425 24.3489L12.5734 24.3264L11.9912 24.3369L12.3208 24.3578C12.0061 24.3862 12.3544 24.4273 11.9403 24.4124C12.024 24.4072 11.6294 24.4124 11.4672 24.3795H11.468C11.314 24.3967 11.1563 24.4154 10.9261 24.4019C10.8663 24.384 10.9739 24.3406 10.935 24.3294C10.7833 24.3758 10.207 24.3421 10.0149 24.3915C10.0792 24.3802 10.0822 24.3511 10.0613 24.3451L9.93421 24.3825C9.78995 24.3705 9.76903 24.3646 9.7922 24.3414C9.35868 24.3347 9.92973 24.4109 9.41549 24.381C9.45585 24.378 9.43642 24.3728 9.52088 24.3668C9.26301 24.3586 9.01337 24.3646 8.76895 24.3705C8.50062 24.3758 8.33619 24.3817 8.17997 24.372C8.21585 24.3406 8.22631 24.3384 8.22631 24.3466C8.30106 24.3309 8.44456 24.3474 8.40869 24.3115C8.36683 24.313 8.32497 24.3152 8.28237 24.3167C8.31974 24.2524 8.35711 24.1867 8.39523 24.1209L8.6389 23.7277C8.80184 23.4669 8.96553 23.2105 9.13296 22.9736L9.05896 23.0722C9.04551 22.9526 9.3669 22.6858 9.52387 22.3876C9.48276 22.4586 9.49995 22.5012 9.50518 22.478C9.76977 22.1095 10.0082 21.6992 10.373 21.1162L10.3423 21.1977C10.5067 20.9861 10.7452 20.6206 10.9141 20.3867C10.9455 20.3045 11.0404 20.1699 10.9604 20.2364C11.5539 19.5638 11.8604 18.7961 12.3821 18.1952C12.329 18.2737 12.2707 18.3918 12.3126 18.329L12.6743 17.7617C12.616 17.7863 12.6078 17.823 12.5069 17.9254C12.5375 17.8439 12.631 17.6772 12.7244 17.5397C12.5734 17.8028 12.7715 17.5681 12.8604 17.4709C12.8395 17.4829 12.8552 17.4395 12.8403 17.4425C13.0877 17.1854 12.8163 17.3551 13.119 16.9806V17.012C13.2125 16.858 13.2857 16.7078 13.3986 16.5501C13.4763 16.506 13.3067 16.719 13.3268 16.7474C13.4771 16.5209 13.5653 16.2608 13.7357 16.0792C13.6759 16.1793 13.5914 16.3199 13.5316 16.4208C13.72 16.2249 13.7275 16.1921 13.8456 16.0314L13.8336 16.0471L14.1087 15.6771L14.0324 15.7675C14.1378 15.4282 14.4046 15.183 14.6057 14.7659C14.4091 15.1711 14.5952 14.8474 14.6132 14.9012C14.6887 14.8115 14.8 14.6718 14.7821 14.7203C14.8733 14.5208 15.0086 14.4363 15.1356 14.1538C15.1551 14.1508 15.2664 13.9624 15.2694 14.023C15.4182 13.7831 15.2111 14.0641 15.2096 14.0342C15.4122 13.647 15.8308 13.2225 16.1245 12.6671C16.3801 12.2433 16.4153 12.1155 16.6193 11.7672L16.703 11.6439C16.7658 11.5901 16.6447 11.8121 16.6447 11.8121C16.8144 11.5983 16.9265 11.4271 17.0558 11.2051C17.0371 11.2552 17.076 11.2171 17.1328 11.161C17.2449 10.9884 17.1664 11.0175 17.3361 10.8045C17.3234 10.8524 17.3114 10.9159 17.2688 11.0071C17.3899 10.797 17.5103 10.587 17.6358 10.3703C17.6941 10.3291 17.5828 10.5168 17.5461 10.5997C17.6949 10.3598 17.937 9.98158 17.9527 9.88741L17.8675 9.99429C17.8937 9.97112 17.8899 10.019 17.8608 10.0713C17.7509 10.2888 17.6538 10.3523 17.6343 10.3553L17.727 10.2021C17.5543 10.3067 17.3361 10.8045 17.1306 11.0998L17.1575 10.9704L18.6224 8.80437L18.6254 8.80512ZM17.002 11.2761C16.9676 11.3098 16.9325 11.3322 16.931 11.3105L17.1298 11.0168L17.002 11.2761ZM15.9974 12.6903C15.9929 12.715 15.9735 12.7643 15.9175 12.8704L15.833 12.9332L15.9974 12.6903ZM45.6356 21.7052C45.6356 21.7052 45.6349 21.7052 45.6341 21.7052L45.4353 21.4107C45.4391 21.4129 45.4443 21.4159 45.4495 21.4204C45.5101 21.5123 45.5721 21.6073 45.6356 21.7052ZM43.6198 18.6736C43.5577 18.5921 43.4965 18.5114 43.4344 18.4269C43.498 18.5061 43.5592 18.5883 43.6198 18.6736ZM41.6062 15.7092C41.5815 15.6786 41.5569 15.6479 41.5314 15.6173C41.5576 15.6487 41.5808 15.6763 41.6017 15.701C41.6032 15.704 41.6054 15.7062 41.6069 15.7092H41.6062ZM38.5977 11.3001L38.4774 11.1214C38.4737 11.1117 38.4707 11.105 38.4707 11.1012C38.5342 11.1954 38.5977 11.2903 38.6583 11.3808C38.6389 11.3554 38.6187 11.3277 38.5977 11.3001ZM38.1328 10.5713L38.0559 10.4749C38.088 10.525 38.1246 10.581 38.1627 10.6393C38.1612 10.6423 38.1575 10.6431 38.1523 10.6401L37.8645 10.2148L37.9953 10.3732C38.0402 10.4375 38.0858 10.5033 38.1328 10.5713ZM37.866 10.1886L37.8197 10.1498L37.1186 9.11306C37.3376 9.43222 37.5782 9.77679 37.866 10.1886ZM44.4868 19.862C44.4935 19.8889 44.5048 19.9128 44.5197 19.9412C44.4681 19.8665 44.4158 19.788 44.3665 19.708C44.3986 19.7424 44.4479 19.8097 44.4861 19.862H44.4868ZM43.9539 19.1609C43.9128 19.1302 43.85 19.0615 43.6983 18.8058L43.7222 18.8193C43.7969 18.9284 43.8732 19.042 43.9539 19.1609ZM42.1675 16.5007L42.1638 16.497C42.0883 16.3901 42.0135 16.2773 41.9343 16.1607C41.9709 16.2025 42.0322 16.287 42.1675 16.5007ZM37.0363 8.83576C37.0775 8.89107 37.1096 8.93891 37.1358 8.98151C37.1029 8.93293 37.0692 8.8836 37.0363 8.83576ZM35.9473 7.35284C36.0736 7.5397 36.1977 7.72282 36.3196 7.90221L36.2224 7.75272C36.2224 7.75272 36.2299 7.7602 36.2336 7.76393C36.2695 7.81252 36.3068 7.8611 36.345 7.90968C36.3659 7.94108 36.3883 7.97546 36.4122 8.01283C36.4092 8.02329 36.3793 7.99414 36.3666 7.98742C36.4033 8.03077 36.4414 8.07561 36.478 8.11672C36.5983 8.30882 36.7433 8.54276 36.8913 8.74457C36.8226 8.64815 36.786 8.62797 36.8076 8.65264C36.8241 8.6773 36.8413 8.70272 36.8577 8.72813L35.6431 6.93203C35.6446 6.9283 35.6469 6.92381 35.6476 6.92082C35.6835 6.97165 35.7186 7.02247 35.7537 7.0733C35.8188 7.16748 35.883 7.26091 35.9466 7.35359L35.9473 7.35284ZM35.5983 6.84832C35.6125 6.8685 35.6259 6.88793 35.6394 6.90737C35.6371 6.91036 35.6356 6.91335 35.6334 6.91634L35.6028 6.87074L35.6043 6.86551L35.602 6.86925L35.5953 6.85953L35.5661 6.90438C35.5661 6.90438 35.5661 6.90139 35.5661 6.89915C35.5766 6.88195 35.5878 6.86476 35.5983 6.84757V6.84832ZM33.3911 10.0376C33.3888 10.0429 33.3866 10.0481 33.3851 10.0526C33.3799 10.0586 33.3746 10.066 33.3694 10.072L33.3911 10.0369V10.0376ZM29.0178 16.799C29.0178 16.799 29.0178 16.802 29.0178 16.8042L29.0141 16.8087L29.0186 16.799H29.0178ZM25.984 12.2553C25.984 12.2553 25.9787 12.2501 25.9757 12.2463L25.8576 12.0811C25.7687 11.9526 25.7029 11.8494 25.6521 11.762L25.984 12.2553ZM22.4284 6.85505C22.4889 6.94549 22.5398 7.02247 22.5727 7.0718C22.5428 7.02696 22.5009 6.96417 22.4277 6.85579L22.4284 6.85505ZM8.85491 15.6823C8.84968 15.6868 8.84519 15.689 8.8422 15.6905C8.8579 15.6718 8.86089 15.6711 8.85491 15.6823Z" fill="#EAE9E6"/>
<path d="M35.2775 28.6885L35.0974 28.6967C35.0847 28.6952 35.0757 28.693 35.0675 28.6907C35.063 28.6967 34.9636 28.7034 34.8687 28.7087C35.0533 28.7064 35.2977 28.7184 35.2768 28.6885H35.2775Z" fill="#EAE9E6"/>
<path d="M13.4746 8.74886L13.4843 8.75335L13.5284 8.67188L13.4746 8.74886Z" fill="#EAE9E6"/>
<path d="M42.7901 17.3386L42.6025 17.0352C42.684 17.1667 42.7431 17.2624 42.7901 17.3386Z" fill="#EAE9E6"/>
<path d="M34.8694 28.71C34.8433 28.71 34.8179 28.7115 34.7947 28.7122C34.6191 28.7204 34.7386 28.7174 34.8694 28.71Z" fill="#EAE9E6"/>
<path d="M44.0367 28.6123C43.9388 28.619 43.8431 28.625 43.7422 28.6317C43.9051 28.6347 44.0322 28.6355 44.0367 28.6123Z" fill="#EAE9E6"/>
<path d="M43.3154 28.6317C43.4784 28.6399 43.6152 28.6384 43.7415 28.6317C43.6077 28.6287 43.45 28.625 43.3154 28.6317Z" fill="#EAE9E6"/>
<path d="M36.9817 8.67711C36.9817 8.67711 36.9757 8.67711 36.9697 8.67188L37.0325 8.75559L36.9817 8.67711Z" fill="#EAE9E6"/>
<path d="M36.9087 8.58887C36.9356 8.62848 36.9588 8.66212 36.9707 8.67183L36.9087 8.58887Z" fill="#EAE9E6"/>
<path d="M36.7769 8.41406L36.9077 8.58896C36.8658 8.52618 36.8142 8.44844 36.7769 8.41406Z" fill="#EAE9E6"/>
<path d="M38.4541 10.8909L38.4833 10.9065C38.472 10.8953 38.4616 10.8894 38.4541 10.8909Z" fill="#EAE9E6"/>
<path d="M38.5066 10.9197L38.4834 10.9062C38.5701 10.9944 38.7749 11.4018 38.8945 11.5334C38.7928 11.3771 38.6598 11.129 38.5066 10.9197Z" fill="#EAE9E6"/>
<path d="M48.2802 28.674L48.4058 28.6396L48.0171 28.6509L48.2802 28.674Z" fill="#EAE9E6"/>
<path d="M18.1282 9.75005C18.1813 9.58786 18.2194 9.56618 18.2717 9.38904C18.3457 9.26945 18.4219 9.19471 18.4234 9.2246C18.4406 9.17677 18.555 9.0497 18.5714 8.96973C18.4376 9.09978 18.3068 9.29113 18.1969 9.50938C18.1588 9.54675 18.1768 9.49742 18.176 9.48247C18.1028 9.63271 18.031 9.81358 18.1282 9.75005Z" fill="#EAE9E6"/>
<path d="M17.2127 11.1169C17.2374 11.0758 17.256 11.0407 17.271 11.0078L17.2104 11.1065C17.2104 11.1065 17.2127 11.1125 17.2127 11.1169Z" fill="#EAE9E6"/>
<path d="M20.3646 11.5938C20.3646 11.5938 20.3684 11.5901 20.3706 11.5893C20.3579 11.5774 20.3527 11.5751 20.3646 11.5938Z" fill="#EAE9E6"/>
<path d="M17.1664 11.1758L17.1006 11.2737C17.132 11.2296 17.1522 11.1997 17.1664 11.1758Z" fill="#EAE9E6"/>
<path d="M24.4561 17.739C24.4524 17.7868 24.2453 17.4894 24.4875 17.8549C24.4673 17.8033 24.4598 17.7682 24.4561 17.739Z" fill="#EAE9E6"/>
<path d="M17.1932 11.1055C17.1932 11.1234 17.1864 11.1436 17.167 11.1765C17.1819 11.1526 17.1969 11.1294 17.2111 11.107C17.2103 11.0972 17.2059 11.0928 17.1932 11.1055Z" fill="#EAE9E6"/>
<path d="M24.9414 24.2334L25.3331 24.2394C25.2232 24.2379 25.0812 24.2356 24.9414 24.2334Z" fill="#EAE9E6"/>
<path d="M34.356 16.4437C34.3754 16.4153 34.3918 16.3877 34.4008 16.3652L34.356 16.4437Z" fill="#EAE9E6"/>
<path d="M26.4966 24.2334C26.5668 24.2483 26.6408 24.2566 26.7171 24.2618C26.7335 24.2588 26.7522 24.2558 26.7627 24.2513L26.4966 24.2334Z" fill="#EAE9E6"/>
<path d="M28.2876 24.2352C28.3078 24.2344 28.3265 24.2329 28.3399 24.2314C28.3257 24.2322 28.3063 24.2337 28.2876 24.2352Z" fill="#EAE9E6"/>
<path d="M17.8423 10.0302L17.8699 9.99512C17.8625 10.0011 17.8535 10.0123 17.8423 10.0302Z" fill="#EAE9E6"/>
<path d="M17.5318 24.3029L17.6567 24.2947C17.6656 24.2962 17.6716 24.2985 17.6776 24.3007C17.6806 24.2947 17.7493 24.288 17.8151 24.2828C17.6873 24.285 17.5184 24.273 17.5326 24.3029H17.5318Z" fill="#EAE9E6"/>
<path d="M17.6768 24.3024H17.6793L17.6768 24.2998V24.3024Z" fill="#EAE9E6"/>
<path d="M35.0943 15.3154C35.0824 15.3379 35.0689 15.364 35.0532 15.3954C35.0659 15.3692 35.0809 15.3423 35.0943 15.3154Z" fill="#EAE9E6"/>
<path d="M33.9763 17.0621L33.9673 17.0576L33.9404 17.1167L33.9763 17.0621Z" fill="#EAE9E6"/>
<path d="M12.9009 17.4326C12.9009 17.4326 12.8815 17.4498 12.8628 17.4707C12.8703 17.4663 12.8815 17.4558 12.9009 17.4326Z" fill="#EAE9E6"/>
<path d="M13.8472 16.0318C13.8853 15.9824 13.9324 15.9211 13.9974 15.8359L13.8472 16.0318Z" fill="#EAE9E6"/>
<path d="M14.6148 14.9318C14.6185 14.9138 14.6163 14.9064 14.6148 14.9004L14.6133 14.9026L14.6148 14.9325V14.9318Z" fill="#EAE9E6"/>
<path d="M17.8145 24.2816C17.8324 24.2816 17.8503 24.2801 17.866 24.2793C17.9871 24.2711 17.9049 24.2741 17.8145 24.2816Z" fill="#EAE9E6"/>
<path d="M11.4702 24.3793C11.5382 24.3726 11.6048 24.3666 11.6743 24.3599C11.5614 24.3569 11.4732 24.3562 11.4702 24.3793Z" fill="#EAE9E6"/>
<path d="M11.9696 24.3601C11.8567 24.3519 11.7625 24.3534 11.6743 24.3601C11.767 24.3631 11.8761 24.3668 11.9696 24.3601Z" fill="#EAE9E6"/>
<path d="M17.9234 10.0769C17.9234 10.0769 17.9211 10.0716 17.9219 10.0664L17.8853 10.1292L17.9226 10.0769H17.9234Z" fill="#EAE9E6"/>
<path d="M17.9587 10.0039C17.94 10.0316 17.9243 10.0547 17.9229 10.0659L17.9587 10.0039Z" fill="#EAE9E6"/>
<path d="M17.9585 10.0038C17.9876 9.9605 18.025 9.90818 18.0347 9.87305L17.9585 10.0038Z" fill="#EAE9E6"/>
<path d="M16.876 11.5889V11.6143C16.8805 11.6031 16.8805 11.5948 16.876 11.5889Z" fill="#EAE9E6"/>
<path d="M16.8771 11.6342V11.6133C16.848 11.6955 16.6245 11.922 16.5767 12.0371C16.6514 11.9324 16.7837 11.7874 16.8771 11.6335V11.6342Z" fill="#EAE9E6"/>
<path d="M8.46706 24.3527L8.71595 24.3415L8.53358 24.3184C8.4992 24.3296 8.48724 24.3415 8.46631 24.3527H8.46706Z" fill="#EAE9E6"/>
<path d="M38.4767 10.967C38.4588 10.9371 38.4349 10.9005 38.4072 10.8594L38.4767 10.967Z" fill="#EAE9E6"/>
<path d="M38.4077 10.8605L38.2298 10.5839C38.2104 10.5697 38.3195 10.7267 38.4077 10.8605Z" fill="#EAE9E6"/>
<path d="M43.7946 18.7829C43.743 18.7044 43.7071 18.6895 43.6787 18.6641C43.7153 18.7029 43.7579 18.7582 43.8058 18.8263C43.8103 18.8255 43.8073 18.8121 43.7946 18.7829Z" fill="#EAE9E6"/>
<path d="M38.4766 10.9678C38.4863 10.9835 38.4952 10.9984 38.5005 11.0081C38.4938 10.9947 38.4938 10.9947 38.4885 10.9865L38.4766 10.9678Z" fill="#EAE9E6"/>
<path d="M45.2656 21L45.6266 21.5441C45.5691 21.4447 45.4943 21.3147 45.6625 21.5598C45.2215 20.864 45.7425 21.7108 45.2664 21H45.2656Z" fill="#EAE9E6"/>
<path d="M44.1624 19.3182C44.0316 19.1381 44.0002 19.0948 44.1407 19.3153C44.3403 19.6038 44.1482 19.3055 44.1624 19.3182Z" fill="#EAE9E6"/>
<path d="M35.9435 7.19184L35.9794 7.21052C35.8254 6.98779 35.9719 7.21276 35.9435 7.19184Z" fill="#EAE9E6"/>
<path d="M60.0418 13.6574C59.8377 12.6783 59.5313 11.8157 59.2368 11.1482C59.0948 10.7177 58.8175 10.1556 58.5858 9.74381C58.7031 9.97925 58.6359 9.91348 58.5357 9.73484C58.3623 9.42017 58.2577 9.26619 58.2009 9.18472C58.1455 9.10325 58.1351 9.09428 58.1246 9.08531C58.0962 9.07335 58.0947 9.03897 57.6575 8.46045C57.4086 8.12635 56.9586 7.57175 56.3539 6.96483C56.0572 6.66062 55.6962 6.34595 55.3449 6.04473C54.9943 5.74949 54.6318 5.44379 54.2693 5.13958C52.8238 3.91827 51.3999 2.70517 50.87 2.24176C50.793 2.18421 50.7145 2.12591 50.6353 2.06686L50.5164 1.97418L50.3154 1.81124C50.0306 1.56533 49.7391 1.38819 49.4095 1.35306C49.0814 1.31419 48.7353 1.3979 48.4759 1.5885C48.2091 1.77162 48.0372 2.04892 47.9707 2.32547L47.9946 2.20962C47.9378 2.34715 47.8944 2.60352 47.9064 2.96229C47.9064 3.18727 47.9064 3.46158 47.9056 3.76803C47.9034 4.31441 47.9004 4.97888 47.8967 5.64635C47.8892 6.98202 47.8817 8.33414 47.8914 8.79456L47.8989 8.67123C47.9325 9.47398 47.8735 9.36485 47.8555 9.99794C47.9153 9.91422 47.9497 10.6026 47.9542 10.8657L47.9415 10.8552C47.9512 11.2514 48.0035 12.1476 48.0118 12.8016L47.9789 12.7762C48.014 13.321 47.9998 14.3465 48.0028 14.7382C47.9938 15.3227 47.9669 16.1135 47.9609 16.9259C47.8271 16.7294 47.7165 16.5702 47.647 16.4745C47.6664 16.5642 47.8002 16.7204 47.8002 16.8153C47.6762 16.6868 47.6635 16.5956 47.5932 16.5492C47.6224 16.4483 47.3921 16.2189 47.3847 16.0634L47.3189 16.047L47.2927 15.9595C46.8181 15.3459 47.1739 15.8257 46.7979 15.2532C46.5685 14.9288 46.41 14.8077 46.3054 14.6119C46.3233 14.6395 46.3495 14.7277 46.2822 14.6485C46.3054 14.6119 46.1043 14.4385 46.1095 14.3749C46.049 14.2942 45.8696 14.0214 45.8868 14.1432C45.8778 14.0819 45.7239 13.8353 45.8412 13.9653C45.7874 13.8831 45.7403 13.8002 45.6902 13.7486L45.7485 13.8614C45.5557 13.5916 45.4892 13.4182 45.327 13.2672L45.3778 13.3808C45.2642 13.2194 45.1678 13.0841 45.1678 12.9899L45.2963 13.1484C45.1102 12.8771 44.9959 12.7149 44.818 12.5048L44.8718 12.5863C44.6304 12.3277 43.5667 10.8418 43.3298 10.6131L43.3784 10.7596L43.1975 10.5548C43.2274 10.5757 43.3552 10.5847 43.3814 10.6093C43.0361 10.1078 41.2886 7.59342 41.0053 7.12628C40.8999 6.93045 41.0382 7.05602 41.0449 7.05452C40.8812 6.84075 40.9425 6.98351 40.8177 6.79217C40.7885 6.73686 40.852 6.7847 40.8767 6.81086C40.8162 6.73013 40.7758 6.64567 40.7556 6.65016C40.8132 6.76227 40.7399 6.74732 40.7422 6.81011L40.58 6.5642L40.6151 6.55673C40.5792 6.50216 40.4469 6.46928 40.2989 6.22038C40.0373 5.81004 39.7301 5.37876 39.4611 4.96917C39.482 4.96393 39.5493 5.04316 39.6165 5.12164C39.5807 5.06708 39.5201 4.9871 39.4984 4.9288C39.5358 5.04615 39.3631 4.77184 39.4028 4.8563C39.2555 4.71803 38.677 3.75234 38.1463 2.87036L37.2898 4.16044C37.3765 4.31067 37.4385 4.41457 37.4617 4.4482C37.4572 4.45418 37.3877 4.34954 37.2793 4.17539L37.2554 4.21126C37.357 4.3757 37.4243 4.47885 37.4385 4.48483C37.5147 4.6246 37.3907 4.49604 37.4841 4.66272C37.5693 4.76885 37.7001 4.89592 37.7696 5.03718L37.7621 5.03868C37.943 5.37353 38.1359 5.48639 38.2988 5.79434L38.2674 5.77042C38.3182 5.88403 38.4782 6.06715 38.5828 6.26224C38.5537 6.20618 38.5455 6.14564 38.6239 6.25327C38.7465 6.47675 38.8639 6.6068 38.9438 6.77647L39.0746 6.90354C39.5657 7.63827 41.5726 10.4987 42.0771 11.2297L42.0524 11.2043C42.8283 12.3135 44.3874 14.6126 45.2163 15.7413C45.3075 15.9408 45.4824 16.183 45.6005 16.3751C45.543 16.263 45.5886 16.2839 45.6424 16.3661C46.0251 16.9372 45.6887 16.39 46.0931 16.9573C46.4982 17.503 47.7741 19.4216 48.381 20.3619C48.2517 20.335 48.162 20.3208 48.1463 20.3305C48.0432 20.1661 47.94 20.0024 47.9146 19.9486C47.9243 20.0017 48.1216 20.329 48.2405 20.4935L48.2988 20.4987C48.5634 20.8844 48.3339 20.6056 48.5821 20.9883C48.5634 21.0294 48.3309 20.6796 48.1291 20.3694C48.304 20.6527 48.4587 20.9472 48.5671 21.0391C48.7218 21.3112 48.5096 21.0346 48.6979 21.3605C48.8519 21.581 49.0724 21.8583 49.2196 22.1304L49.2114 22.1289C49.5814 22.7821 49.8759 23.0654 50.2115 23.6634L50.1614 23.608C50.2735 23.8233 50.5546 24.2097 50.7691 24.5902C50.7085 24.4811 50.6734 24.3757 50.8184 24.5947C51.0688 25.0304 51.2728 25.3062 51.4455 25.6314L51.666 25.9087C51.9762 26.3938 52.5009 27.2122 53.3178 28.4911C53.3926 28.6077 53.5219 28.6787 53.6609 28.6787H54.3112C54.4412 28.6787 54.5631 28.6159 54.6386 28.5098L54.6401 28.5083C54.9061 28.3954 55.1461 28.1996 55.0997 27.8685C55.1177 27.8438 55.1356 27.8176 55.1535 27.793C55.1834 27.8468 55.2171 27.9028 55.2604 27.9634C55.2477 27.9081 55.2126 27.84 55.1707 27.7683C55.7799 26.92 56.4302 26.0133 57.0483 25.1523C57.4564 24.576 57.8473 24.052 58.1881 23.5273C58.5215 23.0183 58.751 22.5691 58.9049 22.2761L58.8765 22.3434C59.2002 21.7118 59.547 20.8806 59.8206 19.9284C60.0919 18.9762 60.272 17.8999 60.3139 16.8138C60.3468 15.7278 60.2503 14.6358 60.0418 13.6574ZM58.7614 16.9917L58.7734 16.8108C58.7936 17.1345 58.7375 18.1488 58.5125 19.1339C58.3033 20.1227 57.9183 21.0585 57.8182 21.3448C57.8727 21.2678 57.9221 21.1878 57.9721 21.1079C57.9161 21.2731 57.8466 21.4338 57.7823 21.5959C57.8077 21.5451 57.7756 21.3508 57.7957 21.2858C57.6866 21.5137 57.4863 21.945 57.1761 22.4562C57.0946 22.5856 57.0087 22.7216 56.9197 22.8629C56.8241 23.0011 56.7247 23.1446 56.6223 23.2919C56.4033 23.5961 56.1723 23.9167 55.9384 24.2426C55.4697 24.8929 54.9869 25.5611 54.5563 26.1583C54.4809 26.2615 54.4083 26.3609 54.3388 26.4573C53.7947 25.6142 53.261 24.783 52.681 23.9407C52.6765 23.91 52.6945 23.9377 52.7199 23.9638C52.5016 23.6678 52.3222 23.3958 52.1227 23.1274C52.0823 23.043 52.0853 23.0108 52.0808 22.9809C52.0808 23.028 51.0195 21.4704 51.0083 21.4412L50.9462 21.4554C50.7422 21.1572 50.9432 21.3306 50.7437 21.0623C50.6001 21.001 50.4387 20.5989 50.337 20.5279C50.3438 20.5264 50.2541 20.3896 50.2817 20.3836C50.216 20.3679 50.1786 20.2506 50.1106 20.1713C50.0792 20.1474 50.1151 20.202 50.1188 20.2326L49.973 20.0458C49.9334 19.9613 49.9424 19.9277 50.0029 20.0084C49.8923 19.8357 49.6382 19.4463 49.3347 18.9851C49.3422 18.8371 49.3444 18.672 49.3482 18.5098C49.328 18.6451 49.3153 18.7871 49.3086 18.9455C49.2884 18.9156 49.269 18.8857 49.2488 18.8551C49.2548 18.8237 49.2622 18.799 49.2675 18.7654L49.3003 18.7908L49.2959 18.4784C49.3123 18.1024 49.2742 17.929 49.3071 17.9544L49.3026 18.4687C49.3123 18.092 49.3295 18.3551 49.3482 18.4993C49.3512 18.3416 49.3557 18.1884 49.3654 18.0635C49.3527 17.9888 49.3519 18.1181 49.3445 18.1764C49.3332 17.9739 49.3026 17.6913 49.3175 17.4439C49.3205 17.0582 49.3706 17.4193 49.3743 16.9686C49.3998 14.5917 49.4379 12.2888 49.4304 9.88657C49.4439 9.832 49.4439 9.89703 49.4498 9.96654C49.4409 9.24153 49.4334 8.60172 49.4259 7.94024C49.4409 7.75711 49.4611 7.70778 49.4745 7.65322C49.4611 7.70778 49.4536 6.79815 49.4506 5.86684C49.4513 4.93628 49.4521 3.98778 49.4521 3.95489L49.3923 3.90855C49.3923 3.55277 49.4087 3.50045 49.4244 3.4556C49.4319 3.43318 49.4394 3.41225 49.4439 3.35545C49.4461 3.32704 49.4468 3.29042 49.4476 3.23959V3.16709C49.4476 3.16709 49.4468 3.16485 49.4461 3.16335C49.405 3.15289 49.402 3.1215 49.4184 3.11103C49.4356 3.09833 49.4551 3.11029 49.4543 3.08114C49.4573 3.08786 49.4805 3.09459 49.4775 3.12748C49.4842 3.07291 49.4932 3.12449 49.5037 3.11851C49.5141 3.11029 49.5081 3.10431 49.5089 3.08786L49.5306 3.09534L49.5365 3.09758L49.5769 3.12822L49.6696 3.20073C49.8004 3.32928 49.8176 3.37862 49.6614 3.25454C50.1285 3.65068 51.4806 4.7995 52.841 5.95579C53.1825 6.2443 53.5241 6.53281 53.853 6.81011C54.1796 7.08666 54.5085 7.35723 54.7589 7.58595C55.0272 7.81242 55.2417 8.04861 55.4368 8.23398C55.6185 8.4313 55.7672 8.59275 55.8711 8.70561C55.7919 8.56584 55.5205 8.3005 55.4615 8.15774C55.7044 8.37749 55.7762 8.5195 55.8972 8.60471C55.9144 8.7527 56.3435 9.16529 56.413 9.41867L56.5049 9.468L56.5767 9.61375C56.993 10.1915 57.0356 10.2633 57.064 10.3171C57.0924 10.3717 57.1126 10.4098 57.4041 10.9674C57.5767 11.2895 57.6993 11.5294 57.8025 11.7357C57.9071 11.9293 57.9714 12.102 58.0327 12.2866C58.014 12.2201 57.999 12.1132 58.0671 12.2664C58.0521 12.2888 58.1067 12.4039 58.156 12.5295C58.2024 12.6551 58.2517 12.7889 58.2464 12.839C58.3175 13.0116 58.452 13.5969 58.4572 13.3913C58.4572 13.4466 58.4871 13.6021 58.5043 13.7067C58.517 13.8144 58.5185 13.8697 58.4759 13.7149C58.5095 13.8936 58.535 14.067 58.5723 14.1933L58.5424 13.9616C58.6105 14.2613 58.6374 14.4975 58.659 14.7068C58.6889 14.9146 58.7084 15.097 58.7472 15.2943L58.7502 15.0656C58.7861 15.4318 58.8138 15.7398 58.7569 15.8863C58.7472 15.7607 58.7427 15.6351 58.7233 15.511C58.7577 16.1172 58.7659 16.4835 58.7614 16.9917Z" fill="#EAE9E6"/>
<path d="M92.1479 1.6123C92.112 1.90829 92.109 2.41879 92.103 2.90164C92.1374 2.52941 92.1516 2.13402 92.1479 1.6123Z" fill="#EAE9E6"/>
<path d="M92.1023 2.91108C92.1023 2.91108 92.1023 2.91632 92.1023 2.91856C92.1023 2.91183 92.1023 2.90735 92.1023 2.90137C92.1023 2.9051 92.1023 2.90809 92.1016 2.91108H92.1023Z" fill="#EAE9E6"/>
<path d="M88.118 18.9512C88.0425 19.0453 87.9566 19.153 87.8691 19.2614C87.9521 19.1575 88.0366 19.0521 88.118 18.9512Z" fill="#EAE9E6"/>
<path d="M93.5413 18.7275C93.5084 17.436 93.5667 17.6116 93.5846 16.5936C93.5248 16.7274 93.4912 15.6204 93.4867 15.1981L93.4994 15.2138C93.4897 14.577 93.4374 13.1345 93.4292 12.0828L93.4621 12.1239C93.4269 11.2472 93.4419 9.59832 93.4381 8.96823C93.4516 7.52642 93.5084 5.30353 93.4658 3.37589L93.5585 2.13065L93.5495 1.94828C93.5495 1.94828 92.4239 -0.0570992 92.1839 2.48868L92.151 2.44832L92.1555 2.95134C92.1391 3.55527 92.1772 3.83482 92.1443 3.79371L92.1481 2.96629C92.1391 3.57321 92.1219 3.14941 92.1032 2.91771C92.1002 3.17109 92.0957 3.417 92.086 3.61881C92.0987 3.7384 92.0995 3.53061 92.1069 3.43643C92.1182 3.76306 92.1488 4.2175 92.1339 4.61514C92.1309 5.23626 92.0808 4.65476 92.0778 5.37902C92.0524 9.20292 92.0143 12.9072 92.0217 16.7722C92.0083 16.8597 92.0083 16.755 92.0023 16.6437C92.0113 17.8089 92.0188 18.8419 92.0262 19.9025C92.0113 20.194 91.9918 20.2762 91.9784 20.3614C91.9904 20.3211 91.9978 21.6059 92.0016 22.9924C92.0023 23.3654 92.0031 23.7526 92.0038 24.0687C92.0038 24.0882 92.0031 24.1016 92.0016 24.1024H92.0001L92.0591 24.2608C92.0599 24.3722 91.9918 24.0747 92.0068 24.1696C92.0344 24.2945 92.0427 24.3535 92.0427 24.3759C92.0225 24.3273 91.9933 24.1786 91.9993 24.2698C91.9971 24.2466 91.9821 24.2048 91.9799 24.1315C91.9821 24.1831 91.9799 24.1913 91.9769 24.1868C91.9724 24.1779 91.9687 24.1442 91.9634 24.1487C91.9575 24.1674 91.9619 24.1816 91.9634 24.2197C91.9537 24.2107 91.9425 24.1973 91.9291 24.1801C91.9238 24.1278 91.941 24.1009 91.95 24.1091C91.9477 24.1016 91.9455 24.0927 91.9418 24.0822L91.938 24.0665L91.9358 24.059C91.932 24.0493 91.944 24.0777 91.9134 24.0037C91.7429 23.5889 91.5389 23.0926 91.3124 22.5425C90.858 21.4415 90.3138 20.1238 89.7682 18.8023C88.674 16.1586 87.5685 13.4999 87.1514 12.5305C87.2239 12.7936 87.4967 13.3863 87.5423 13.6352C87.2994 13.1322 87.2359 12.8736 87.1118 12.6583C87.1028 12.4304 86.6566 11.52 86.5684 11.0984L86.4645 10.9684L86.3831 10.7015C85.3935 8.45548 86.1461 10.1933 85.3165 8.18192C84.8411 7.06151 84.5556 6.53083 84.3119 5.90447C84.3493 6.01435 84.3837 6.14889 84.2723 5.90597C84.2798 5.87233 84.1893 5.67501 84.0944 5.46573C84.0473 5.36034 83.9995 5.25196 83.9591 5.16152C83.9404 5.11368 83.924 5.07108 83.909 5.03446C83.8844 4.96943 83.8657 4.91561 83.8552 4.87899C83.622 4.33336 82.8978 2.58809 83.0921 3.18679C82.9576 2.79887 82.3394 1.29128 82.7296 2.16504C82.5853 1.81598 82.4433 1.47291 82.3192 1.17319C82.2804 1.17094 82.2452 1.17319 82.2138 1.18066L82.32 1.21803L82.4104 1.44675C82.3783 1.37126 82.3476 1.29726 82.32 1.23298C82.1324 1.21056 81.9844 1.17319 81.8521 1.15674C81.7205 1.13656 81.6039 1.13581 81.4784 1.12012C81.5284 1.13058 81.5785 1.14404 81.6286 1.16123C81.5733 1.14777 81.5202 1.13507 81.4701 1.12311C81.3289 1.22775 81.216 1.31445 81.1316 1.29876C81.2026 1.25167 81.2743 1.20832 81.3483 1.1687C81.3461 1.1702 81.3431 1.17094 81.3408 1.17244C80.9589 1.36229 80.7197 1.75395 80.7257 2.17999C80.7287 2.39002 80.7317 2.60603 80.7347 2.83026L80.7362 2.25548C80.7474 3.04104 80.7803 5.44256 80.8139 7.83361C80.8401 9.54899 80.8677 11.2524 80.9013 11.7629L80.9432 11.2928L80.9783 12.1695C80.9776 12.0723 80.864 11.7958 80.8565 11.6852C80.8602 13.6278 80.8931 23.3325 80.8647 25.0621C80.8415 25.7632 80.7982 25.1884 80.7915 25.1802C80.7997 25.607 80.8109 25.6989 80.8191 25.7744C80.8236 25.8125 80.8273 25.8469 80.8296 25.9164C80.8303 26.0352 80.8311 26.2116 80.8326 26.5159C80.8251 26.8671 80.7997 26.4583 80.7937 26.2565C80.7989 26.823 80.784 27.3642 80.8042 27.3904C80.8191 26.6713 80.8707 26.9382 80.9043 26.6347L80.9021 27.4786C80.9013 27.8194 81.089 28.1333 81.3902 28.294C81.7796 28.5018 82.2609 28.4046 82.539 28.0623C83.3978 27.0054 84.2715 25.9299 85.1027 24.9074C85.1027 24.9388 84.9061 25.1996 84.7095 25.4612C84.8366 25.305 85.025 25.0651 85.1558 24.9238C84.93 25.1503 85.5579 24.3916 85.3658 24.6069C86.0198 23.6711 87.0042 22.5724 87.5947 21.7569C87.5939 21.644 87.9886 19.3068 87.922 19.253C88.0065 19.1498 88.0902 19.0474 88.1642 18.9577C89.3362 21.8047 90.4648 24.5471 90.9021 25.6107C91.1973 26.2707 91.5015 26.9793 91.8102 27.7103C91.9717 28.0922 92.376 28.3202 92.7834 28.2439C92.7968 28.2417 92.811 28.2387 92.8245 28.2357C93.2386 28.1512 93.5361 27.7865 93.5368 27.3634C93.5405 25.6518 93.5458 23.615 93.5495 21.7973C93.5495 20.33 93.5488 19.0601 93.5488 18.528L93.5413 18.7268V18.7275ZM87.7247 19.4839V19.5564C87.2658 20.1492 87.5932 19.6753 87.135 20.2463C87.0812 20.2531 87.499 19.7246 87.8697 19.2612C87.5304 19.6738 87.1739 20.0699 87.0692 20.265C86.7411 20.6455 87.0685 20.1925 86.6753 20.6522C86.413 20.9945 86.0856 21.4572 85.7567 21.8279V21.8167C84.9697 22.7271 84.643 23.2832 83.9217 24.1128L83.986 24.0134C83.7274 24.2982 83.276 24.9014 82.8215 25.4283C82.9478 25.2856 83.0592 25.1877 82.8073 25.5061C82.6511 25.6914 82.521 25.8461 82.4007 25.9882C82.3932 25.9971 82.3828 26.0068 82.3813 25.9867C82.376 26.0113 82.3671 26.0427 82.3521 26.0801C82.3484 26.0853 82.3439 26.0906 82.3289 26.1085C82.3192 23.5515 82.2856 14.6712 82.2774 12.3496L82.2834 12.4603C82.2781 10.7172 82.2699 8.03094 82.2617 5.37529C82.2594 5.26168 82.2572 5.14881 82.255 5.03819C82.2983 5.13386 82.3394 5.22505 82.379 5.31175C82.4328 5.42985 82.4852 5.54271 82.533 5.64736C82.8073 6.28791 83.0599 6.87839 83.2849 7.40234C83.5159 8.04962 83.8889 8.92039 84.1557 9.58486C84.0159 9.21189 84.0922 9.32775 84.211 9.61476C85.0481 11.6299 84.291 9.74108 85.1558 11.7719C85.661 12.9371 86.8427 15.7669 88.0028 18.5676C88.0551 18.6939 88.1067 18.8202 88.1582 18.9465C88.0147 19.1155 87.8376 19.3345 87.7247 19.4839Z" fill="#EAE9E6"/>
<path d="M110.911 0.74707C111.117 0.782947 111.337 0.799391 111.627 0.797896C111.463 0.761272 111.179 0.755292 110.911 0.74707Z" fill="#EAE9E6"/>
<path d="M110.906 0.746094H110.901C110.901 0.746094 110.907 0.746094 110.911 0.746841H110.906V0.746094Z" fill="#EAE9E6"/>
<path d="M111.356 27.3366C111.43 27.3351 111.506 27.3322 111.577 27.3262C111.51 27.3292 111.433 27.3329 111.356 27.3366Z" fill="#EAE9E6"/>
<path d="M111.212 27.3692L111.183 27.4163C110.767 27.4485 111.084 27.3932 110.677 27.4111C110.654 27.3745 111.028 27.3521 111.357 27.3364C111.06 27.3431 110.763 27.3274 110.644 27.373C110.365 27.3677 110.674 27.3259 110.337 27.3229C110.099 27.3431 109.786 27.3917 109.51 27.3797L109.515 27.373C108.845 27.3595 108.495 27.4687 107.883 27.4537L107.948 27.4388C107.732 27.4253 107.309 27.4701 106.918 27.4619C107.029 27.4649 107.127 27.4888 106.893 27.5023C106.444 27.4956 106.14 27.5307 105.811 27.5142L105.499 27.5628C105.03 27.5823 104.145 27.6181 103.121 27.66C102.61 27.6824 102.064 27.7071 101.518 27.731L101.109 27.7497L100.916 27.7587L100.898 27.7609C100.872 27.7639 100.846 27.7669 100.822 27.7699C100.82 27.7512 100.819 27.7332 100.817 27.7161L100.815 27.6884C100.815 27.6181 100.813 27.5494 100.813 27.4821C100.81 27.1331 100.807 26.8102 100.805 26.5194C100.801 25.9379 100.798 25.4827 100.796 25.1949L100.803 25.2517C100.786 23.413 100.786 19.9591 100.753 17.5449C100.893 17.5554 101.035 17.5621 101.177 17.5591C101.184 17.5726 101.176 17.5718 101.167 17.5785C101.259 17.5643 101.341 17.5696 101.425 17.5546C101.448 17.5696 101.455 17.589 101.461 17.6032C101.448 17.5763 101.924 17.5733 101.931 17.5808L101.937 17.5217C102.028 17.521 101.964 17.589 102.047 17.5748C102.08 17.4911 102.186 17.5838 102.215 17.5389C102.215 17.5457 102.256 17.5479 102.254 17.5741C102.266 17.5285 102.295 17.5636 102.322 17.5516C102.331 17.5389 102.315 17.5382 102.307 17.5247L102.366 17.509C102.39 17.5232 102.396 17.5501 102.37 17.5554C102.525 17.5718 103.269 17.6152 103.436 17.5927C103.414 17.5584 103.363 17.5815 103.343 17.5277C103.387 17.4978 103.408 17.5382 103.428 17.5068C103.445 17.5868 103.525 17.5262 103.558 17.6069L103.571 17.5613L103.592 17.589C103.787 17.5419 103.636 17.5658 103.808 17.5763C103.908 17.5696 103.955 17.5068 104.011 17.53C104.003 17.53 103.981 17.5016 104.006 17.4903C104.011 17.53 104.075 17.4619 104.088 17.5023C104.113 17.4971 104.195 17.5023 104.167 17.4477C104.181 17.4746 104.254 17.4859 104.21 17.5098C104.235 17.5113 104.259 17.5195 104.277 17.5075L104.246 17.4926C104.329 17.4844 104.374 17.527 104.428 17.4776L104.397 17.456C104.447 17.4522 104.488 17.4485 104.508 17.5023L104.457 17.5187C104.539 17.5172 104.589 17.5135 104.658 17.4851L104.633 17.4836C104.721 17.4298 105.179 17.3857 105.26 17.3184L105.222 17.2766L105.292 17.2414C105.284 17.2414 105.258 17.3775 105.252 17.3633C105.4 17.3595 106.174 17.3267 106.311 17.3551C106.367 17.3782 106.321 17.4216 106.32 17.4283C106.388 17.4126 106.35 17.3842 106.407 17.3879C106.423 17.3954 106.404 17.4208 106.395 17.4268C106.421 17.4216 106.444 17.4365 106.445 17.4171C106.414 17.4021 106.427 17.3498 106.414 17.3162L106.488 17.3207L106.485 17.3536C106.501 17.3543 106.527 17.2639 106.599 17.2818C106.722 17.296 106.854 17.2848 106.977 17.2923C106.975 17.3117 106.95 17.3237 106.924 17.3349C106.94 17.3356 106.965 17.3311 106.98 17.3446C106.951 17.3102 107.032 17.3214 107.009 17.3072C107.099 17.2272 107.215 17.3005 107.295 17.2459C107.302 17.1742 107.465 16.0104 107.465 15.9245C107.49 15.926 107.515 15.9274 107.522 15.9349C107.516 15.9147 107.468 15.905 107.442 15.917L107.437 15.9626C107.378 15.979 107.423 15.9357 107.365 15.9387C107.362 15.9013 107.415 15.8931 107.463 15.8893C107.42 15.8848 107.378 15.8579 107.361 15.899C107.321 15.8833 107.365 15.8534 107.318 15.837C107.283 15.8482 107.239 15.8848 107.199 15.8624V15.8557C107.105 15.8168 107.054 15.9125 106.968 15.8744L106.977 15.8617C106.946 15.84 106.885 15.8691 106.83 15.846C106.846 15.8534 106.86 15.8804 106.826 15.8848C106.763 15.8609 106.72 15.8848 106.672 15.8557L106.628 15.8923C106.406 15.8848 105.53 15.9372 105.307 15.9431L105.316 15.9372C104.977 15.9558 104.279 15.9529 103.929 16.0029C103.874 15.9671 103.799 15.9753 103.743 15.9648C103.774 15.9798 103.763 16.0052 103.739 16.0044C103.566 15.9999 103.727 16.0291 103.553 16.0448C103.352 16.0784 102.583 16.0403 102.405 16.0097C102.309 16.0627 102.189 16.0224 102.095 16.056L102.105 16.0433C102.004 16.0635 101.434 16.0141 101.316 16.0328L101.332 16.0403C101.23 16.0732 101.244 16.0149 101.163 15.997C101.174 16.0568 101.086 16.0904 101.052 16.0949L101.054 16.0822C101.004 16.0919 100.89 16.1442 100.807 16.1524L100.81 16.1195C100.79 16.1293 100.767 16.1352 100.742 16.1382C100.768 15.8019 100.762 15.3818 100.771 15.0552C100.755 15.2592 100.727 15.1897 100.729 15.0298C100.733 14.0177 100.707 14.7756 100.69 14.0902C100.727 14.0917 100.765 14.0932 100.802 14.0917C100.807 14.1052 100.801 14.1044 100.795 14.1112C100.86 14.097 100.916 14.1022 100.974 14.0872C100.99 14.1022 100.995 14.1216 100.999 14.1358C100.99 14.1089 101.321 14.1059 101.326 14.1134L101.33 14.0544C101.393 14.0536 101.348 14.1216 101.406 14.1074C101.428 14.0237 101.502 14.1164 101.523 14.0716C101.523 14.0783 101.55 14.0805 101.549 14.1067C101.558 14.0611 101.578 14.0962 101.596 14.0843C101.603 14.0716 101.591 14.0708 101.586 14.0574L101.627 14.0417C101.644 14.0559 101.647 14.0828 101.629 14.088C101.737 14.1044 102.254 14.1478 102.369 14.1254C102.355 14.091 102.319 14.1142 102.305 14.0603C102.336 14.0304 102.35 14.0708 102.363 14.0394C102.375 14.1194 102.431 14.0588 102.454 14.1396L102.463 14.094L102.478 14.1216C102.612 14.0745 102.508 14.0985 102.628 14.1089C102.697 14.1022 102.73 14.0394 102.769 14.0626C102.763 14.0626 102.748 14.0342 102.766 14.023C102.769 14.0626 102.813 13.9946 102.822 14.0349C102.839 14.0297 102.896 14.0349 102.877 13.9804C102.887 14.0073 102.938 14.0185 102.907 14.0424C102.924 14.0439 102.941 14.0521 102.953 14.0402L102.932 14.0252C102.989 14.017 103.02 14.0596 103.059 14.0103L103.037 13.9886C103.071 13.9848 103.1 13.9811 103.114 14.0349L103.079 14.0514C103.136 14.0499 103.171 14.0461 103.219 14.0177L103.201 14.0162C103.262 13.9624 103.58 13.9183 103.636 13.8511L103.61 13.8092L103.658 13.7741C103.652 13.7741 103.635 13.9101 103.63 13.8959C103.733 13.8922 104.27 13.8593 104.365 13.8877C104.403 13.9109 104.372 13.9542 104.372 13.9609C104.419 13.9452 104.392 13.9168 104.432 13.9206C104.443 13.928 104.429 13.9535 104.423 13.9594C104.441 13.9542 104.457 13.9692 104.459 13.9497C104.437 13.9348 104.446 13.8825 104.437 13.8488L104.488 13.8533L104.486 13.8862C104.497 13.8869 104.515 13.7965 104.565 13.8144C104.651 13.8286 104.743 13.8174 104.828 13.8249C104.826 13.8443 104.808 13.8563 104.79 13.8675C104.802 13.8682 104.82 13.8638 104.83 13.8772C104.809 13.8428 104.866 13.854 104.849 13.8398C104.912 13.7599 104.993 13.8331 105.048 13.7786C105.053 13.7068 105.166 12.543 105.166 12.4571C105.184 12.4586 105.201 12.4601 105.206 12.4676C105.202 12.4474 105.168 12.4377 105.15 12.4496L105.147 12.4952C105.106 12.5116 105.137 12.4683 105.097 12.4713C105.095 12.4339 105.132 12.4257 105.164 12.422C105.135 12.4175 105.106 12.3906 105.094 12.4317C105.066 12.416 105.097 12.3861 105.064 12.3696C105.04 12.3808 105.009 12.4175 104.982 12.395V12.3883C104.916 12.3495 104.881 12.4451 104.821 12.407L104.828 12.3943C104.806 12.3726 104.764 12.4018 104.726 12.3786C104.737 12.3861 104.746 12.413 104.723 12.4175C104.679 12.3936 104.648 12.4175 104.616 12.3883L104.585 12.4249C104.431 12.4175 103.822 12.4698 103.668 12.4758L103.674 12.4698C103.438 12.4885 102.954 12.4855 102.71 12.5356C102.673 12.4997 102.621 12.5079 102.581 12.4974C102.603 12.5124 102.595 12.5378 102.578 12.5371C102.458 12.5326 102.57 12.5617 102.449 12.5774C102.309 12.6111 101.775 12.5729 101.651 12.5423C101.585 12.5954 101.502 12.555 101.437 12.5886L101.443 12.5759C101.373 12.5961 100.977 12.5468 100.896 12.5655L100.907 12.5729C100.836 12.6058 100.845 12.5475 100.789 12.5296C100.797 12.5894 100.736 12.623 100.712 12.6275V12.6148C100.702 12.6178 100.685 12.626 100.668 12.635C100.662 10.652 100.694 7.30275 100.72 6.3819C100.662 5.76078 100.706 4.98569 100.669 4.37727L100.682 4.43856C100.677 4.25021 100.677 3.80772 100.679 3.25611C100.68 2.98031 100.682 2.67685 100.684 2.36442C100.686 2.2807 100.688 2.19475 100.691 2.11104C100.76 2.11702 101.956 2.13047 102.207 2.12449L102.096 2.11627C102.814 2.08936 102.716 2.14691 103.281 2.16934C103.207 2.10879 103.823 2.08039 104.058 2.0774L104.049 2.09011C104.403 2.08263 105.205 2.03779 105.79 2.0348L105.767 2.06768C106.255 2.03629 107.17 2.05871 107.521 2.05797C108.322 2.07815 109.557 2.14542 110.628 2.11104L111.319 2.2097L111.421 2.20148C111.421 2.20148 112.547 1.0848 111.134 0.832915L111.157 0.800775L110.878 0.803017C110.542 0.784331 110.386 0.820956 110.41 0.788069L110.869 0.795543C110.532 0.783584 110.768 0.767888 110.897 0.750697C110.756 0.746212 110.62 0.74098 110.508 0.730516C110.441 0.742475 110.556 0.744717 110.608 0.752192C110.427 0.761908 110.174 0.791058 109.954 0.773867C109.608 0.767888 109.932 0.720799 109.529 0.714072C107.404 0.671468 105.346 0.616158 103.198 0.605694C103.15 0.591492 103.208 0.592987 103.27 0.587008C102.621 0.589997 102.05 0.592987 101.458 0.595977C101.295 0.580281 101.251 0.559352 101.202 0.545898C101.212 0.548888 101.183 0.551131 101.123 0.553373C101.046 0.55412 100.931 0.555615 100.787 0.55711C100.333 0.555615 99.6996 0.553373 99.015 0.550383C99.0165 1.27091 99.0172 2.06096 99.0187 2.67759C99.0164 3.04234 99.015 3.30245 99.015 3.31815L99.0792 3.35552C99.08 3.94301 99.006 3.52669 99.0217 4.07007C99.1121 4.28235 99.012 4.97223 99.0606 5.15984C99.0531 5.15535 99.0508 5.42144 99.0224 5.405C99.0718 5.48647 99.0336 5.67856 99.0463 5.84599C99.0598 5.90653 99.0613 5.80114 99.0755 5.75555L99.0927 6.13973C99.077 6.28997 99.0478 6.32734 99.0426 6.16365C99.0247 7.16821 98.9783 11.9892 99.0022 13.0707C99.0396 12.9317 99.0142 12.5976 99.0725 12.4705C99.1054 12.7568 99.0613 12.8913 99.0957 13.0177C99.009 13.1275 99.0748 13.6463 98.9873 13.863L99.0366 13.9452L99.0067 14.0872C99.0576 15.3452 99.0314 14.375 99.0202 15.4894C99.0277 16.1248 99.0934 16.432 99.0718 16.784C99.077 16.7235 99.1024 16.6203 99.1144 16.7721C99.071 16.8005 99.145 17.2168 99.1017 17.2982C99.1069 17.4619 99.1017 17.9926 99.1607 17.8132C99.1316 17.9037 99.1196 18.3768 99.0934 18.095C99.0919 18.255 99.083 18.4097 99.0957 18.524L99.1121 18.3192C99.1211 18.8582 99.0747 19.1526 99.1286 19.5032L99.1517 19.3036C99.1555 19.6258 99.16 19.8956 99.1017 20.0219L99.0837 19.6908C99.0852 20.2252 99.0889 20.5481 99.1203 20.9936L99.1218 20.8344C99.1801 21.4024 99.228 24.372 99.3012 24.8952L99.3468 24.6545L99.3849 25.1045C99.3849 25.0514 99.2377 24.8877 99.2526 24.8429C99.2549 25.4468 99.2631 27.4074 99.2713 29.2565C100.274 29.2177 101.251 29.1803 102.053 29.1489C102.65 29.1272 103.118 29.113 103.343 29.1108C103.733 29.119 103.416 29.1743 103.411 29.181C103.885 29.1474 103.614 29.1287 104.017 29.1175C104.127 29.1212 103.995 29.1511 103.934 29.1594C104.11 29.1474 104.275 29.1556 104.287 29.1362C104.066 29.1295 104.157 29.0741 104.062 29.0443L104.58 29.0293L104.559 29.0629C104.675 29.0592 104.848 28.9628 105.357 28.9605C106.216 28.9419 107.148 28.8955 108.012 28.8701C107.999 28.8903 107.818 28.909 107.637 28.9269C107.753 28.9232 107.93 28.912 108.037 28.9217C107.827 28.8948 108.398 28.885 108.234 28.8761C108.862 28.7722 109.684 28.814 110.239 28.7385C110.285 28.6646 111.379 27.4589 111.375 27.373C111.549 27.3677 111.721 27.3633 111.774 27.3677C111.729 27.3491 111.388 27.3528 111.207 27.3707L111.212 27.3692Z" fill="#EAE9E6"/>
<path d="M99.0764 16.7803C99.0764 16.7863 99.0757 16.7922 99.0757 16.7967C99.0757 16.7915 99.0757 16.7855 99.0764 16.7803Z" fill="#EAE9E6"/>
<path d="M107.495 15.8828C107.486 15.8828 107.475 15.8843 107.464 15.8851C107.474 15.8858 107.485 15.8865 107.495 15.8828Z" fill="#EAE9E6"/>
<path d="M105.19 12.4141C105.183 12.4141 105.176 12.4156 105.168 12.4163C105.176 12.4171 105.183 12.4178 105.19 12.4141Z" fill="#EAE9E6"/>
<path d="M122.572 0C122.453 0.0583002 122.292 0.201809 122.137 0.3356C122.278 0.254129 122.413 0.152478 122.572 0Z" fill="#EAE9E6"/>
<path d="M122.134 0.337836L122.131 0.340711L122.138 0.334961L122.133 0.337836H122.134Z" fill="#EAE9E6"/>
<path d="M114.56 29.9589C114.597 29.9237 114.64 29.8841 114.682 29.8438C114.64 29.8811 114.597 29.9192 114.56 29.9589Z" fill="#EAE9E6"/>
<path d="M114.759 6.94739L114.78 7.01167C114.423 7.3398 114.626 7.05726 114.306 7.37119C114.272 7.46088 114.133 7.58496 113.993 7.7038C113.923 7.76359 113.852 7.82264 113.793 7.87272C113.754 7.91009 113.719 7.94298 113.686 7.97288C113.644 8.01473 113.61 8.05061 113.587 8.07901C113.587 8.07004 113.272 8.35482 113.265 8.32417C113.215 8.43405 112.952 8.62539 112.766 8.81225C112.712 8.88027 112.837 8.76666 112.907 8.72256L112.535 9.08357L112.585 9.13515C112.723 9.30556 112.73 9.3534 112.544 9.16205C112.901 9.55222 113.933 10.6816 114.971 11.8177C115.785 12.7064 116.608 13.5974 116.92 13.915C116.869 13.8081 116.664 13.6228 116.635 13.5099C116.82 13.6616 116.863 13.77 116.959 13.8246C116.957 13.9449 117.296 14.2155 117.353 14.4009L117.435 14.4195L117.492 14.5242C118.235 15.2484 117.672 14.6811 118.288 15.3591C118.655 15.7425 118.877 15.8845 119.061 16.1162C119.031 16.0841 118.973 15.9794 119.076 16.0721C119.061 16.1162 119.348 16.3203 119.362 16.3965C119.457 16.4914 119.75 16.8143 119.694 16.6693C119.723 16.7418 119.979 17.0341 119.802 16.8809C119.89 16.978 119.97 17.0767 120.044 17.1372L119.942 17.0034C120.25 17.3226 120.381 17.5274 120.617 17.7053L120.523 17.5707C120.706 17.7621 120.861 17.922 120.889 18.0342L120.69 17.8465C120.99 18.1672 121.174 18.3585 121.447 18.6074L121.359 18.511C121.538 18.662 122.044 19.1688 122.553 19.674C122.68 19.8004 122.807 19.9267 122.929 20.0478C122.988 20.1061 123.046 20.1636 123.103 20.2189C123.121 20.2324 123.138 20.2458 123.154 20.2585C123.223 20.3109 123.293 20.3617 123.343 20.3908C123.343 20.3923 123.343 20.3946 123.343 20.3946L123.352 20.3908C123.357 20.3766 123.361 20.3609 123.362 20.3437L123.434 20.3946L123.402 20.4484C123.417 20.4364 123.314 20.3983 123.287 20.3886C123.277 20.3863 123.272 20.3841 123.275 20.3826C123.276 20.3841 123.277 20.3848 123.28 20.3878C123.216 20.4484 123.088 20.568 122.929 20.7167C122.553 21.0628 122.103 21.4761 121.656 21.8872C120.761 22.7086 119.872 23.5181 119.592 23.7528C119.356 23.9352 119.504 23.7394 119.502 23.7326C119.246 23.9868 119.419 23.8702 119.189 24.0735C119.122 24.1243 119.178 24.0376 119.209 24.0017C119.113 24.0959 119.01 24.1691 119.016 24.1901C119.152 24.0884 119.138 24.1744 119.215 24.1512L118.92 24.4135L118.909 24.3777C118.843 24.436 118.809 24.5937 118.51 24.8418C118.016 25.2716 117.498 25.7574 117.007 26.1939C117 26.1723 117.093 26.0714 117.187 25.9697C117.122 26.028 115.588 26.9915 115.517 27.0356C115.66 26.9541 115.33 27.2381 115.432 27.1656C115.135 27.5483 114.62 27.9138 114.346 28.2397C114.371 28.3182 114.583 29.7645 114.645 29.828C114.547 29.9154 114.448 30.0029 114.413 30.0246C114.453 30.0163 114.652 29.8489 114.746 29.748L114.729 29.6979C114.952 29.473 114.804 29.668 115.031 29.4573C115.071 29.4737 114.866 29.6718 114.683 29.8429C114.853 29.6942 115.04 29.5627 115.077 29.4707C115.246 29.3392 115.094 29.5208 115.295 29.3601C115.421 29.2293 117.01 28.1717 117.181 28.0476L117.183 28.0551C117.588 27.7411 117.717 27.4893 118.09 27.2045L118.062 27.2471C118.2 27.1529 118.418 26.9137 118.654 26.7314C118.586 26.7829 118.511 26.8121 118.64 26.6887C118.91 26.4772 119.064 26.3031 119.27 26.1573L119.42 25.969C120.36 25.1019 124.077 21.6757 125.021 20.8042L124.964 20.8647C125.081 20.7571 125.205 20.6435 125.394 20.4701C124.623 19.6501 123.515 18.4714 122.411 17.2987C121.507 16.3397 120.604 15.3897 119.977 14.7536C119.809 14.5175 119.53 14.2312 119.332 14.004C119.434 14.137 119.374 14.1123 119.286 14.0152C118.663 13.3395 119.224 13.9868 118.578 13.3171C118.2 12.9366 117.32 11.9904 116.456 11.0501C115.637 10.1561 114.581 8.99687 114.793 9.20017C114.772 9.19045 114.753 9.1785 114.734 9.16504C114.754 9.12991 114.798 9.08955 114.838 9.05143C114.894 8.99836 114.95 8.94679 115.004 8.89596C115.089 8.81524 115.169 8.73676 115.243 8.65903L115.215 8.70238C115.598 8.32343 117.885 6.29861 118.333 5.86136L118.265 5.91294C118.643 5.51978 118.632 5.61246 118.962 5.33516C118.876 5.32919 119.196 4.98835 119.324 4.86428L119.329 4.87848C119.52 4.68938 119.931 4.23867 120.253 3.93297L120.265 3.96885C120.512 3.69229 121.037 3.23187 121.231 3.0495C121.691 2.64737 122.426 2.05466 122.995 1.4724L123.453 1.18538L123.503 1.12634C123.503 1.12634 123.295 -0.275112 122.324 0.275751L122.313 0.239874L122.159 0.386372C121.958 0.547071 121.899 0.654702 121.888 0.618825L122.149 0.385624C121.953 0.552303 122.072 0.418512 122.13 0.338536C122.049 0.408795 121.97 0.476064 121.899 0.526143C121.872 0.569494 121.937 0.511194 121.971 0.489518C121.878 0.59117 121.759 0.743648 121.624 0.846047C121.428 1.02095 121.572 0.818391 121.343 1.02319C120.132 2.09651 118.949 3.12723 117.75 4.23643C117.712 4.25138 117.745 4.22223 117.776 4.1856C117.417 4.52569 117.104 4.82317 116.777 5.1341C116.675 5.20735 116.634 5.21558 116.597 5.23052C116.634 5.21558 116.184 5.63937 115.719 6.06915C115.486 6.28366 115.25 6.50042 115.071 6.66486C114.89 6.8278 114.767 6.93842 114.758 6.94664L114.759 6.94739Z" fill="#EAE9E6"/>
<path d="M63.7252 1.49414C63.661 1.67801 63.6161 2.00016 63.5728 2.30436C63.6385 2.07266 63.6856 1.82526 63.7252 1.49414Z" fill="#EAE9E6"/>
<path d="M63.5713 2.31067V2.31515C63.5713 2.31067 63.572 2.30768 63.5728 2.30469L63.5713 2.31067Z" fill="#EAE9E6"/>
<path d="M74.8257 1.69043C74.8369 1.76443 74.8489 1.84963 74.8616 1.93484C74.8518 1.85262 74.8406 1.76891 74.8257 1.69043Z" fill="#EAE9E6"/>
<path d="M62.9061 17.163L62.9741 17.2063C63.0309 17.9381 62.9114 17.4238 62.9854 18.1003C63.0975 18.3581 63.0833 19.2259 63.1647 19.4561C63.1565 19.4516 63.1939 19.7835 63.1625 19.7656C63.226 19.862 63.2208 20.1056 63.2627 20.3134C63.2866 20.3874 63.2701 20.2559 63.2769 20.1976L63.3658 20.6737C63.3793 20.8628 63.3568 20.9129 63.3195 20.7103C63.4121 21.3359 63.6812 23.1604 64.3472 24.9737C64.6873 25.8774 65.1245 26.778 65.6597 27.4933C66.1792 28.2139 66.7846 28.7311 67.1516 28.9643C66.9864 28.8163 66.5701 28.5016 66.4834 28.3282C66.8205 28.601 66.9572 28.7595 67.1426 28.8484C67.1635 28.8888 67.2241 28.9463 67.3063 29.0129C67.3937 29.0749 67.5074 29.1437 67.6247 29.2147C67.7391 29.2902 67.8758 29.347 67.9917 29.4113C68.1083 29.4755 68.2152 29.5323 68.2944 29.5794L68.4432 29.5832L68.6592 29.6856C69.1771 29.8149 69.4724 29.8291 69.6443 29.85C69.8162 29.8575 69.8678 29.8597 69.9126 29.8612C70.0023 29.853 70.0599 29.9247 70.9882 29.8328C71.5278 29.7618 71.9045 29.6071 72.2125 29.48C72.362 29.4053 72.4973 29.338 72.6266 29.273C72.7521 29.2027 72.8717 29.1354 73.0003 29.0637C72.9255 29.1078 72.7133 29.199 72.936 29.054C73.0115 29.0719 73.4988 28.6429 73.6087 28.5838C73.815 28.4291 74.3464 27.8581 74.1207 28.0173C74.2328 27.9388 74.676 27.4178 74.4391 27.746C74.5864 27.5688 74.7186 27.3939 74.8031 27.2556L74.6185 27.4821C75.0535 26.861 75.2837 26.5246 75.4422 26.0814L75.3002 26.3116C75.4982 25.9244 75.6298 25.5963 75.7553 25.461L75.5932 25.8699C75.8891 25.2196 76.0214 24.8197 76.1724 24.2629L76.1081 24.4587C76.1986 24.1014 76.5035 23.0042 76.6762 21.9085C76.8646 20.8135 76.9625 19.7259 76.9587 19.3986L76.8787 19.6931L76.9034 19.1325C76.8952 19.1982 77.0223 19.415 77.0013 19.4688C77.0746 18.8701 77.2383 17.012 77.2667 15.1696C77.3085 13.3264 77.2502 11.5004 77.2457 10.9495C77.2562 10.504 77.3167 10.8673 77.3242 10.8725C77.2868 10.3321 77.2659 10.6408 77.2517 10.1811C77.2547 10.0556 77.2891 10.2058 77.2988 10.2761C77.2854 10.075 77.2921 9.8874 77.2697 9.87245C77.2652 10.1251 77.2024 10.0204 77.1703 10.1281L77.1471 9.5376L77.1844 9.56227C77.1785 9.43072 77.0686 9.23265 77.0536 8.65189C77.011 7.67349 76.9169 6.61362 76.8354 5.63223C76.8586 5.64569 76.8892 5.85123 76.9206 6.05678C76.9101 5.92523 76.887 5.72492 76.8914 5.60233C76.875 5.84226 76.8272 5.19274 76.8287 5.37885C76.6739 4.66729 76.656 3.73224 76.5215 3.10514C76.4378 3.05207 74.9937 1.8928 74.8965 1.90924C74.8726 1.7164 74.8465 1.52431 74.8465 1.469C74.8315 1.51609 74.8741 1.89653 74.913 2.09685L74.9683 2.126C75.046 2.58866 74.9526 2.23811 75.0131 2.69181C74.975 2.72021 74.9145 2.30314 74.8614 1.9369C74.901 2.26726 74.9122 2.60062 74.9735 2.73067C74.9945 3.04385 74.919 2.70078 74.9466 3.07823C74.9907 3.34432 75.0714 3.69263 75.0804 4.00207L75.0722 3.99758C75.1096 4.74951 75.2546 5.13818 75.2747 5.82582L75.2546 5.75332C75.2523 5.99698 75.3271 6.47161 75.3353 6.91035C75.3338 6.78553 75.3555 6.67491 75.3809 6.93726C75.3943 7.44178 75.4452 7.78261 75.4369 8.15185L75.5005 8.5024C75.5528 9.37765 75.6851 11.5452 75.6926 13.7106C75.7142 15.8766 75.5737 18.0315 75.4803 18.8978V18.829C75.354 20.1482 75.0961 22.1746 74.4668 24.0753C74.1491 25.0193 73.738 25.9334 73.2148 26.6405C72.9554 26.994 72.6766 27.302 72.3866 27.5389C72.0959 27.7751 71.7999 27.9448 71.5248 28.0703C71.1653 28.1832 70.6601 28.2923 70.2475 28.2751C70.4717 28.2789 70.3977 28.308 70.2198 28.3163C70.0643 28.3095 69.947 28.3043 69.8573 28.3006C69.7699 28.2893 69.7101 28.2819 69.6682 28.2759C69.5845 28.2669 69.5725 28.2692 69.5606 28.2722C69.5494 28.2729 69.5344 28.2834 69.4507 28.2654C69.3677 28.2467 69.2055 28.2281 68.917 28.1227C68.7511 28.0629 68.5336 27.962 68.2862 27.8125C68.0485 27.6488 67.7749 27.4462 67.5178 27.1674C67.2607 26.8901 67.0058 26.5605 66.7771 26.1883C66.5521 25.8138 66.3443 25.4057 66.165 24.9842C65.4504 23.286 65.1582 21.4376 65.0573 20.7544C64.8734 20.0234 64.8024 19.0869 64.6962 18.3559L64.7179 18.4284C64.6671 18.0352 64.561 16.719 64.5281 15.3796C64.4877 14.0409 64.5064 12.6821 64.5034 12.2194L64.4937 12.3435C64.4683 11.5355 64.5311 11.6461 64.5684 11.0108C64.4989 11.093 64.4825 10.3994 64.4885 10.1356L64.5027 10.146C64.5064 9.74763 64.4899 8.84323 64.5221 8.18474L64.5565 8.21239C64.5482 7.66153 64.6387 6.63156 64.6678 6.23766C64.7538 5.33699 64.9451 3.95423 65.0386 2.75086L65.2351 1.98772L65.2396 1.87411C65.2396 1.87411 64.9698 1.53178 64.6432 1.37856C64.3188 1.22309 63.9241 1.26569 63.6917 2.05723L63.6588 2.02808L63.6244 2.34649C63.5609 2.72619 63.5833 2.90632 63.5504 2.87717L63.6154 2.35546C63.5594 2.7374 63.5721 2.46832 63.5691 2.32033C63.5459 2.48028 63.5243 2.635 63.4981 2.76132C63.5033 2.83831 63.5198 2.7075 63.534 2.64846C63.5228 2.8555 63.5243 3.1455 63.4809 3.39515C63.4361 3.78681 63.4196 3.41533 63.368 3.87276C63.0952 6.28549 62.8919 8.63096 62.8314 11.087C62.8149 11.1424 62.8172 11.0758 62.8127 11.0048C62.8082 11.7455 62.7918 12.4033 62.8082 13.0782C62.791 13.2658 62.7693 13.3167 62.7544 13.3727C62.7701 13.3167 62.7768 14.2487 62.8105 15.2039C62.8314 15.6815 62.8523 16.1651 62.868 16.5321C62.8882 16.8999 62.9016 17.1503 62.9031 17.1675L62.9061 17.163Z" fill="#EAE9E6"/>
</svg>
