<svg width="225" height="60" viewBox="0 0 225 60" fill="none" xmlns="http://www.w3.org/2000/svg">
<path fill-rule="evenodd" clip-rule="evenodd" d="M0.000183105 59.1302H14.9907L0.000183105 44.1396V59.1302Z" fill="url(#paint0_linear_2315_647)"/>
<path fill-rule="evenodd" clip-rule="evenodd" d="M225 0.743079L210.008 0.743077L225 15.7344L225 0.743079Z" fill="url(#paint1_linear_2315_647)"/>
<mask id="path-3-inside-1_2315_647" fill="white">
<path fill-rule="evenodd" clip-rule="evenodd" d="M225 18.1842L207.559 0.743164H17.4394L0 18.1826V41.6931L17.4381 59.1312H207.564L225 41.6948V18.1842Z"/>
</mask>
<path d="M225 18.1842L225.942 17.2423L226.332 17.6324V18.1842H225ZM207.559 0.743164V-0.588939H208.111L208.501 -0.198775L207.559 0.743164ZM17.4394 0.743164L16.4975 -0.198775L16.8876 -0.588939H17.4394V0.743164ZM0 18.1826H-1.33211V17.6308L-0.94194 17.2406L0 18.1826ZM0 41.6931L-0.94194 42.6351L-1.33211 42.2449V41.6931H0ZM17.4381 59.1312V60.4633H16.8863L16.4962 60.0732L17.4381 59.1312ZM207.564 59.1312L208.505 60.0732L208.115 60.4633H207.564V59.1312ZM225 41.6948H226.332V42.2465L225.942 42.6367L225 41.6948ZM224.058 19.1261L206.617 1.6851L208.501 -0.198775L225.942 17.2423L224.058 19.1261ZM207.559 2.07527H17.4394V-0.588939H207.559V2.07527ZM18.3814 1.6851L0.94194 19.1245L-0.94194 17.2406L16.4975 -0.198775L18.3814 1.6851ZM1.33211 18.1826V41.6931H-1.33211V18.1826H1.33211ZM0.94194 40.7512L18.3801 58.1893L16.4962 60.0732L-0.94194 42.6351L0.94194 40.7512ZM17.4381 57.7991H207.564V60.4633H17.4381V57.7991ZM206.622 58.1893L224.058 40.7528L225.942 42.6367L208.505 60.0732L206.622 58.1893ZM223.668 41.6948V18.1842H226.332V41.6948H223.668Z" fill="url(#paint2_linear_2315_647)" mask="url(#path-3-inside-1_2315_647)"/>
<defs>
<linearGradient id="paint0_linear_2315_647" x1="14.9907" y1="59.1304" x2="-8.93517e-07" y2="44.1396" gradientUnits="userSpaceOnUse">
<stop stop-color="#007227"/>
<stop offset="0.505" stop-color="#81D100"/>
<stop offset="1" stop-color="#FFE924"/>
</linearGradient>
<linearGradient id="paint1_linear_2315_647" x1="224.999" y1="15.7344" x2="210.008" y2="0.743318" gradientUnits="userSpaceOnUse">
<stop stop-color="#007227"/>
<stop offset="0.505" stop-color="#81D100"/>
<stop offset="1" stop-color="#FFE924"/>
</linearGradient>
<linearGradient id="paint2_linear_2315_647" x1="225" y1="29.9372" x2="48.8492" y2="29.9372" gradientUnits="userSpaceOnUse">
<stop stop-color="#007227"/>
<stop offset="0.505" stop-color="#81D100"/>
<stop offset="1" stop-color="#FFE924"/>
</linearGradient>
</defs>
</svg>
