<svg width="151" height="42" viewBox="0 0 151 42" fill="none" xmlns="http://www.w3.org/2000/svg">
<path fill-rule="evenodd" clip-rule="evenodd" d="M0.000602722 41.6872H10.0608L0.000602722 31.2324V41.6872Z" fill="#EAE9E6"/>
<path fill-rule="evenodd" clip-rule="evenodd" d="M150.999 0.96714L140.939 0.967139L150.999 11.4219L150.999 0.96714Z" fill="#EAE9E6"/>
<mask id="path-3-inside-1_2315_350" fill="white">
<path fill-rule="evenodd" clip-rule="evenodd" d="M151 13.1303L139.296 0.966797H11.7035L-0.000106812 13.1295V29.5263L11.7032 41.6886H139.298L151 29.5277V13.1303Z"/>
</mask>
<path fill-rule="evenodd" clip-rule="evenodd" d="M151 13.1303L139.296 0.966797H11.7035L-0.000106812 13.1295V29.5263L11.7032 41.6886H139.298L151 29.5277V13.1303Z" fill="#25262B"/>
<path d="M151 13.1303L151.921 12.2439L152.278 12.6151V13.1303H151ZM139.296 0.966797V-0.311627H139.84L140.217 0.0803661L139.296 0.966797ZM11.7035 0.966797L10.7823 0.0803658L11.1595 -0.311627H11.7035V0.966797ZM-0.000106812 13.1295H-1.27853V12.6143L-0.92131 12.243L-0.000106812 13.1295ZM-0.000106812 29.5263L-0.92131 30.4127L-1.27853 30.0414V29.5263H-0.000106812ZM11.7032 41.6886V42.9671H11.1592L10.782 42.5751L11.7032 41.6886ZM139.298 41.6886L140.219 42.5751L139.842 42.9671H139.298V41.6886ZM151 29.5277H152.278V30.0429L151.921 30.4141L151 29.5277ZM150.079 14.0168L138.374 1.85323L140.217 0.0803661L151.921 12.2439L150.079 14.0168ZM139.296 2.24522H11.7035V-0.311627H139.296V2.24522ZM12.6247 1.85323L0.921097 14.0159L-0.92131 12.243L10.7823 0.0803658L12.6247 1.85323ZM1.27832 13.1295V29.5263H-1.27853V13.1295H1.27832ZM0.921097 28.6398L12.6245 40.8022L10.782 42.5751L-0.92131 30.4127L0.921097 28.6398ZM11.7032 40.4102H139.298V42.9671H11.7032V40.4102ZM138.377 40.8022L150.079 28.6413L151.921 30.4141L140.219 42.5751L138.377 40.8022ZM149.722 29.5277V13.1303H152.278V29.5277H149.722Z" fill="url(#paint0_linear_2315_350)" mask="url(#path-3-inside-1_2315_350)"/>
<defs>
<linearGradient id="paint0_linear_2315_350" x1="75.5" y1="41.6887" x2="75.5" y2="0.966797" gradientUnits="userSpaceOnUse">
<stop stop-color="#1F1F25"/>
<stop offset="1" stop-color="#35353A"/>
</linearGradient>
</defs>
</svg>
