<svg width="18" height="17" viewBox="0 0 18 17" fill="none" xmlns="http://www.w3.org/2000/svg">
<g clip-path="url(#clip0_2315_540)">
<path d="M14.5801 2.90012C13.552 2.41027 12.4496 2.04937 11.297 1.84266C11.276 1.83867 11.255 1.84864 11.2442 1.86858C11.1024 2.13045 10.9454 2.47208 10.8354 2.74059C9.59564 2.54785 8.36226 2.54785 7.14794 2.74059C7.03794 2.46611 6.87519 2.13045 6.73277 1.86858C6.72196 1.84931 6.70099 1.83934 6.68 1.84266C5.52799 2.04871 4.42558 2.40961 3.39691 2.90012C3.388 2.9041 3.38037 2.91076 3.3753 2.91939C1.28425 6.16352 0.711427 9.32792 0.992436 12.4531C0.993708 12.4684 1.00197 12.483 1.01342 12.4923C2.39303 13.5444 3.72942 14.1832 5.041 14.6065C5.06199 14.6132 5.08423 14.6052 5.09759 14.5872C5.40784 14.1473 5.6844 13.6833 5.92153 13.1955C5.93552 13.1669 5.92217 13.133 5.89356 13.1217C5.45489 12.9489 5.03718 12.7382 4.63538 12.4989C4.60359 12.4797 4.60105 12.4325 4.63029 12.4099C4.71484 12.3441 4.79942 12.2756 4.88016 12.2065C4.89476 12.1939 4.91512 12.1912 4.93229 12.1992C7.57198 13.4507 10.4298 13.4507 13.0383 12.1992C13.0555 12.1905 13.0758 12.1932 13.0911 12.2058C13.1718 12.2749 13.2564 12.3441 13.3416 12.4099C13.3708 12.4325 13.3689 12.4797 13.3371 12.4989C12.9353 12.7429 12.5176 12.9489 12.0783 13.121C12.0497 13.1323 12.037 13.1669 12.051 13.1955C12.2932 13.6827 12.5698 14.1466 12.8743 14.5866C12.887 14.6052 12.9099 14.6132 12.9309 14.6065C14.2488 14.1832 15.5852 13.5444 16.9648 12.4923C16.9769 12.483 16.9845 12.469 16.9858 12.4537C17.3221 8.84071 16.4225 5.70227 14.601 2.92005C14.5966 2.91076 14.589 2.9041 14.5801 2.90012ZM6.31572 10.5502C5.521 10.5502 4.86616 9.7925 4.86616 8.86199C4.86616 7.93148 5.5083 7.1738 6.31572 7.1738C7.12949 7.1738 7.77799 7.93813 7.76526 8.86199C7.76526 9.7925 7.12313 10.5502 6.31572 10.5502ZM11.6752 10.5502C10.8805 10.5502 10.2257 9.7925 10.2257 8.86199C10.2257 7.93148 10.8678 7.1738 11.6752 7.1738C12.489 7.1738 13.1375 7.93813 13.1248 8.86199C13.1248 9.7925 12.489 10.5502 11.6752 10.5502Z" fill="white"/>
</g>
<defs>
<clipPath id="clip0_2315_540">
<rect width="16.1295" height="16.7498" fill="white" transform="translate(0.925781)"/>
</clipPath>
</defs>
</svg>
