<svg width="17" height="17" viewBox="0 0 17 17" fill="none" xmlns="http://www.w3.org/2000/svg">
<g clip-path="url(#clip0_2315_541)">
<path fill-rule="evenodd" clip-rule="evenodd" d="M17.0001 8.35672C17.0001 12.972 13.2586 16.7134 8.64334 16.7134C4.02805 16.7134 0.286621 12.972 0.286621 8.35672C0.286621 3.74143 4.02805 0 8.64334 0C13.2586 0 17.0001 3.74143 17.0001 8.35672ZM8.9428 6.1693C8.12999 6.50737 6.50551 7.20711 4.06935 8.2685C3.67376 8.42581 3.46653 8.57971 3.44767 8.73019C3.41578 8.98451 3.73426 9.08466 4.16795 9.22103C4.22694 9.23958 4.28806 9.25879 4.35073 9.27916C4.77741 9.41786 5.35137 9.58012 5.64974 9.58657C5.9204 9.59242 6.22249 9.48083 6.556 9.25182C8.83217 7.71534 10.0071 6.93873 10.0809 6.92199C10.133 6.91017 10.2051 6.89532 10.2539 6.93875C10.3028 6.98218 10.298 7.06443 10.2928 7.0865C10.2613 7.221 9.01112 8.38324 8.36417 8.98471C8.16248 9.17221 8.01942 9.30522 7.99018 9.33559C7.92466 9.40364 7.8579 9.468 7.79373 9.52986C7.39733 9.91199 7.10007 10.1986 7.81018 10.6665C8.15144 10.8914 8.42451 11.0773 8.69693 11.2629C8.99444 11.4655 9.29119 11.6676 9.67512 11.9192C9.77294 11.9834 9.86636 12.05 9.95736 12.1148C10.3036 12.3617 10.6147 12.5834 10.9989 12.548C11.2223 12.5275 11.4529 12.3175 11.5701 11.6913C11.8469 10.2113 12.3911 7.00464 12.5168 5.68325C12.5278 5.56747 12.514 5.41931 12.5029 5.35427C12.4917 5.28923 12.4685 5.19656 12.3839 5.12796C12.2838 5.04672 12.1292 5.02958 12.0601 5.0308C11.7458 5.03634 11.2636 5.20402 8.9428 6.1693Z" fill="white"/>
</g>
<defs>
<clipPath id="clip0_2315_541">
<rect width="16.7134" height="16.7134" fill="white" transform="translate(0.286621)"/>
</clipPath>
</defs>
</svg>
