<svg width="12" height="6" viewBox="0 0 12 6" fill="none" xmlns="http://www.w3.org/2000/svg">
<mask id="path-1-inside-1_2315_364" fill="white">
<path fill-rule="evenodd" clip-rule="evenodd" d="M6 5.99947L11.9997 -0.000264045H0.000264045L6 5.99947Z"/>
</mask>
<path fill-rule="evenodd" clip-rule="evenodd" d="M6 5.99947L11.9997 -0.000264045H0.000264045L6 5.99947Z" fill="#D9D9D9"/>
<path d="M11.9997 -0.000264045L11.9997 -0.600264L13.4483 -0.600264L12.424 0.424L11.9997 -0.000264045ZM6 5.99947L6.42426 6.42374L6 6.848L5.57574 6.42374L6 5.99947ZM0.000264045 -0.000264045L-0.424 0.424L-1.44826 -0.600264L0.00026396 -0.600264L0.000264045 -0.000264045ZM12.424 0.424L6.42426 6.42374L5.57574 5.57521L11.5755 -0.424528L12.424 0.424ZM0.00026396 -0.600264H11.9997L11.9997 0.599736H0.000264129L0.00026396 -0.600264ZM5.57574 6.42374L-0.424 0.424L0.424528 -0.424528L6.42426 5.57521L5.57574 6.42374Z" fill="#EAE9E6" mask="url(#path-1-inside-1_2315_364)"/>
</svg>
