<svg width="305" height="157" viewBox="0 0 305 157" fill="none" xmlns="http://www.w3.org/2000/svg">
<path d="M304.073 154.912C304.087 154.887 304.073 154.866 304.019 154.844C303.355 153.954 302.695 153.067 302.039 152.194C301.275 151.134 300.52 150.09 299.784 149.068L300.358 149.925C300.055 149.789 299.684 149.302 299.246 148.631C299.273 148.657 299.3 148.682 299.314 148.699C299.268 148.64 299.219 148.581 299.169 148.521C298.4 147.334 297.442 145.637 296.312 144.297C296.741 144.836 297.058 144.891 296.904 144.768C294.789 141.71 292.361 138.648 288.98 134.204C288.935 134.14 288.894 134.072 288.854 134.013L289.301 134.458C288.085 132.588 285.906 129.645 284.541 127.656C284.247 127.363 283.868 126.876 283.655 126.647C283.33 126.218 283.041 125.841 282.787 125.493C281.323 123.169 279.736 121.032 278.159 118.962L278.046 118.75L277.919 118.644C277.562 118.182 277.209 117.719 276.857 117.261C276.834 117.215 276.83 117.194 276.857 117.219C276.509 116.782 276.369 116.613 276.328 116.574C275.917 116.036 275.505 115.497 275.103 114.959C274.524 114.144 273.901 113.292 273.354 112.533C272.725 111.629 272.124 110.713 271.568 109.78C272.029 110.421 272.757 111.252 272.391 110.743L269.177 106.464C269.087 106.324 268.969 106.137 268.806 105.891C268.372 105.438 267.816 104.674 267.229 103.826C267.197 103.758 267.147 103.665 267.061 103.525C267.061 103.542 267.098 103.614 267.156 103.72C266.397 102.618 265.588 101.383 264.923 100.493C264.734 100.501 262.311 96.9813 260.29 94.2714C260.326 94.3011 260.177 94.0763 259.906 93.6819C259.576 93.1772 259.282 92.7828 258.78 92.0491L258.871 92.1848L256.724 88.9914L257.234 89.8269C257.203 89.7972 257.171 89.7633 257.135 89.7336C256.303 88.5504 255.467 87.3671 254.866 86.4978L254.943 86.5571C254.545 86.2306 253.266 84.4621 252.05 82.7997C252.05 82.7658 252.063 82.7446 252.104 82.7573C251.991 82.5707 251.86 82.3671 251.733 82.1593C251.878 82.3332 252.059 82.5622 252.28 82.8506C252.19 82.787 252.14 82.77 252.099 82.7573C252.099 82.7658 252.108 82.7742 252.108 82.7742L252.289 82.8633C252.316 82.9015 252.344 82.9312 252.375 82.9736L252.298 82.8675L252.316 82.876C252.316 82.876 252.303 82.8675 252.294 82.8591L251.408 81.6292C251.345 81.5274 251.29 81.4299 251.241 81.345C251.299 81.4087 251.358 81.4723 251.412 81.5317L251.186 81.2517C251.033 80.9846 250.969 80.8446 251.1 80.9676C249.857 79.6105 249.473 78.4231 247.71 76.5104C247.715 76.3705 246.585 74.9328 247.005 75.1491C245.568 73.2703 247.204 75.6792 247.001 75.5774C246.996 75.5732 246.992 75.5647 246.987 75.5604C246.087 74.3518 245.143 73.0583 244.135 71.5909C244.117 71.5825 244.112 71.5909 244.117 71.6249C243.063 70.0642 241.942 68.3678 240.672 66.6587C240.659 66.6121 240.632 66.5527 240.591 66.4849C240.582 66.4934 240.604 66.5443 240.65 66.6291C240.13 65.9336 239.583 65.238 239.009 64.5468C238.719 64.0888 239.113 64.5256 238.435 63.5332C237.965 62.9861 236.92 61.4255 236.78 61.4551C236.274 60.7554 236.233 60.59 236.071 60.3016C235.13 59.093 231.885 54.5255 232.775 55.9971L232.997 56.3194C232.952 56.26 232.902 56.1922 232.848 56.1201C231.953 54.9411 231.058 53.7155 230.172 52.4771C230.122 52.3753 230.063 52.2651 230 52.1421C229.76 51.8155 229.579 51.6035 229.43 51.4381C229.06 50.9165 228.693 50.3948 228.327 49.8732C228.558 50.0768 228.825 50.327 229.136 50.6705C228.454 49.8181 227.771 48.9656 227.084 48.109C226.605 47.4304 226.126 46.7561 225.651 46.0861C225.981 46.4508 226.451 47.0191 226.732 47.3202C225.9 46.2345 224.802 44.7756 223.898 43.6433L223.929 43.6306C223.219 42.6806 222.456 41.6373 221.714 40.6195C221.778 40.6068 221.787 40.5177 221.714 40.3184C221.33 39.9579 221.072 39.6908 220.846 39.4363C220.051 38.3549 219.314 37.3625 218.726 36.6246C218.216 35.9121 217.583 34.9028 217.849 35.1784C217.321 34.4744 216.977 34.0122 216.633 33.5541C216.615 33.5287 216.593 33.499 216.575 33.4736L216.905 33.7111L215.77 32.2734C215.702 32.2098 215.657 32.1758 215.621 32.1674C215.517 32.0189 215.404 31.8663 215.286 31.6966C215.169 31.862 215.038 32.0486 214.893 32.2522C214.857 32.2522 214.816 32.2691 214.762 32.2946C214.875 32.1334 215.042 31.8917 215.286 31.5397C215.381 31.6712 215.553 31.9087 215.752 32.1928C215.567 31.9299 215.395 31.6839 215.286 31.5312C215.088 31.8154 214.902 32.0741 214.73 32.3158C214.409 32.5066 213.777 33.164 212.52 34.784L210.852 37.6551L210.079 38.4354L211.652 36.1199C210.594 37.3328 210.169 38.2488 209.627 39.237C209.387 39.4024 209.057 39.7501 208.651 40.2718L207.362 42.7357C207.258 42.8842 207.154 43.0326 207.055 43.1768C206.978 43.0453 207.525 42.019 206.382 43.5542C205.907 44.4618 206.58 43.6942 206.671 43.7366C206.314 44.2625 205.966 44.7799 205.631 45.2888C205.138 45.7934 205.057 45.8019 204.343 47.0572C204.103 47.2184 204.271 46.8579 204.65 46.226C203.85 47.6043 202.34 49.6993 201.956 50.5899L201.793 50.8359C200.645 52.176 198.783 55.3482 198.552 55.0217C198.358 55.4585 197.364 57.2227 196.55 58.4907C196.478 58.5968 196.401 58.7028 196.333 58.8046C197.413 56.4424 193.056 63.5502 193.047 62.6935C192.238 64.6104 188.992 68.9404 187.121 72.0744C187.207 71.8878 187.378 71.5231 187.577 71.2686C186.384 72.948 185.941 73.3764 185.123 74.4281C185.249 74.7759 183.911 76.9006 183.048 78.4485C182.835 78.7835 182.781 78.9023 182.673 79.1016C181.077 80.8658 183.242 77.5749 182.528 78.0583C182.84 78.0965 180.291 81.8158 180.973 81.2305C179.707 82.7149 179.947 82.5495 179.142 83.2238C179.319 83.7242 178.189 84.742 177.511 86.1967C176.629 87.2951 176.444 87.3884 176.272 87.5368C176.186 87.6089 176.105 87.6979 175.947 87.927C175.87 88.0415 175.775 88.1856 175.644 88.3807C175.621 88.4274 175.594 88.4868 175.562 88.5631C175.449 88.614 175.486 88.4316 175.476 88.3511C175.476 88.3086 175.467 88.279 175.454 88.262C175.476 88.1984 175.635 87.9524 175.612 87.9821C175.558 88.0627 175.504 88.139 175.454 88.2111C175.409 88.2747 175.44 88.2323 175.431 88.2493V88.262C175.436 88.2874 175.44 88.3044 175.44 88.3171C175.449 88.4401 175.449 88.4868 175.454 88.5249C175.458 88.6691 175.508 88.7794 175.499 88.9448C175.476 88.9787 175.449 89.0169 175.427 89.055L175.395 89.0084C175.395 89.0423 175.409 89.089 175.427 89.1441C175.427 89.1441 175.427 89.1441 175.431 89.1441C175.431 89.1483 175.422 89.1568 175.418 89.1653C175.35 89.0805 175.296 89.0041 175.25 88.9363C175.228 88.8981 175.205 88.86 175.187 88.8345C175.156 88.7794 175.142 88.7455 175.151 88.7455C175.124 88.7115 175.106 88.6903 175.083 88.6649C175.029 88.5461 175.034 88.4868 175.07 88.4528C175.106 88.3468 175.278 88.385 174.997 87.8464C173.822 86.2857 172.737 85.1152 171.838 83.932C171.625 83.6139 171.449 83.3595 171.304 83.1517C171.255 83.016 171.182 82.8718 171.413 83.1093C169.785 81.2263 167.223 77.1253 165.306 74.9413C165.206 74.7504 165.17 74.6486 165.161 74.5935C165.193 74.7165 165.211 74.814 165.215 74.8946C165.039 74.6614 164.863 74.4154 164.637 74.0888L165.215 74.9497C165.215 74.9794 165.215 75.0091 165.206 75.0303C164.773 74.4663 164.122 73.529 163.267 72.3416C163.227 72.1762 164.298 73.7453 163.932 73.1728C163.697 72.8802 163.462 72.5579 163.227 72.2228C163.466 72.4646 164.085 73.3933 164.429 73.7793C164.501 73.8895 164.574 73.9913 164.637 74.0888L164.429 73.7793C164.533 73.898 164.614 73.9659 164.646 73.9446C163.945 73.0117 163.181 72.0277 162.44 71.0651C161.893 70.2381 161.324 69.3475 160.7 68.423C161.391 69.3645 162.02 70.2635 161.192 68.8174L163.037 71.6588C161.952 69.2881 164.189 73.3679 163.254 71.1499C160.772 67.4433 160.266 67.1337 157.793 63.4357C157.228 62.8546 157.545 63.4356 157.346 63.3466C156.668 62.3245 156.193 61.5315 154.878 59.7376C155.235 60.3864 155.393 60.6239 154.855 59.9242C153.752 58.0412 153.987 57.5874 151.845 55.0132C151.478 54.6357 151.162 54.3855 150.782 54.0038C150.122 53.0921 149.444 52.1633 148.717 51.1582L149.603 51.8707C147.157 48.3083 147.776 50.1022 145.381 46.2684C145.955 46.8579 147.419 48.9953 147.08 48.4398C145.629 45.8952 145.729 46.8367 144.44 44.9877L144.427 44.4491C141.71 40.7298 138.713 36.6246 135.707 32.5024C135.942 32.689 136.525 33.3548 135.92 32.3285C132.114 27.1334 128.1 21.0562 124.7 15.878L123.127 14.0714C122.815 13.6176 122.644 13.1723 123.023 13.6346C121.726 11.6032 122.811 13.6176 122.061 12.7185C121.26 11.5989 121.147 11.1536 121.713 11.8279C120.673 10.4878 119.299 8.68116 117.879 6.75578C117.179 5.78885 116.455 4.79224 115.75 3.81683C114.833 2.50214 113.933 1.20866 113.092 0C112.545 0.73792 112.021 1.44191 111.528 2.10774C111.316 2.3834 111.113 2.64633 110.914 2.90503C110.755 3.10011 110.602 3.29095 110.457 3.47331L110.905 2.72267C109.594 4.42752 109.191 5.35628 108.59 6.39106C108.066 7.14171 107.505 7.939 106.963 8.67692L107.266 8.18497C106.967 8.58786 106.665 8.99499 106.366 9.40212L106.443 9.29185C105.941 9.92375 105.399 10.6871 104.811 11.5353C101.068 16.705 97.3483 22.0358 94.2971 25.7254C93.9943 26.722 90.4594 30.9163 89.9667 32.1462C89.6232 32.6339 89.3294 33.0537 89.0762 33.4312C87.2546 35.628 87.3721 35.3056 84.0904 39.6017C83.114 40.9121 82.9422 41.7476 81.8077 43.4143L81.55 43.3083L80.1849 45.6832L79.0593 46.6925L78.0106 48.2659C78.4672 47.6637 79.0503 47.0318 79.0503 47.1675C77.423 49.6315 74.6792 52.9139 74.5165 52.897L70.62 58.6943C70.62 58.5586 70.9771 57.9903 71.3613 57.3839C69.9917 59.5298 70.9816 57.3754 69.3317 60.0599C69.6527 59.7206 69.3227 60.3483 69.3227 60.4373C68.1881 61.735 65.9144 64.8818 64.2962 67.2482L64.4634 66.7012C61.3896 70.8827 58.1441 75.6198 54.7358 80.3442C55.5314 79.3306 55.8343 79.1567 55.7212 79.4918C55.6263 79.6275 55.5314 79.7547 55.4319 79.8904C55.5224 79.7886 55.5992 79.7038 55.667 79.6317C55.563 79.865 55.3506 80.2212 55.0477 80.658L54.4058 81.0609C53.9086 82.049 55.5404 79.6699 54.3968 81.625C54.1753 81.9261 53.999 82.1466 53.8544 82.312C54.0171 82.0151 54.0126 81.9473 53.4476 82.6725C53.3391 82.6555 53.5515 82.1678 53.9177 81.5741L52.4531 83.7709C52.2904 83.8514 52.6158 83.3256 52.6158 83.1347C52.1322 84.1101 49.7048 86.6844 49.0493 88.1178L48.8911 88.1941C45.5281 92.9397 44.0047 95.0941 41.2655 98.9618C41.3559 99.0848 40.9852 99.6701 40.5287 100.387C39.593 101.706 38.6392 103.059 37.8662 104.199C36.2163 106.341 34.4444 108.631 32.6589 111.133C31.6283 112.698 31.7729 112.601 31.8498 112.618C31.6237 112.944 31.3932 113.266 31.1672 113.589C30.4033 114.475 29.1964 116.125 30.0597 114.713C27.1442 118.818 26.335 119.959 22.7595 125.226C22.7776 125.205 22.7957 125.188 22.8138 125.166C22.5516 125.552 22.2623 125.972 21.973 126.379C21.9549 126.384 21.9459 126.379 21.9459 126.362L22.1041 126.104C21.8193 126.545 21.5164 126.99 21.2045 127.44C21.1729 127.482 21.1413 127.529 21.1096 127.567L21.8238 126.451C20.2598 128.555 19.0574 130.273 17.9635 131.876C14.6276 136.248 10.9933 140.654 8.9682 144.017L9.13545 143.746L7.88785 145.637C7.06065 146.791 6.28316 147.885 5.53732 148.95C5.77689 148.525 6.03455 148.055 5.40171 148.814C4.5971 150.078 3.84222 151.201 3.1235 152.232C2.01604 153.767 0.989937 155.188 0 156.562C1.96179 156.575 3.84222 156.587 5.77237 156.596C7.07421 156.596 8.4122 156.579 9.85869 156.515C14.0987 157.147 24.9021 156.469 30.6248 156.876L30.2948 156.727C31.7729 156.583 32.0848 156.812 33.1742 156.846C33.0205 156.732 31.5695 156.71 32.4871 156.63C45.0173 156.452 58.3475 156.846 71.1941 156.982C75.8906 157.02 73.861 156.21 79.7826 156.566L78.1011 156.842C87.58 156.511 97.4884 156.855 106.769 156.57C106.217 156.634 106.199 156.719 105.295 156.715C107.257 156.914 112.545 156.723 112.577 156.562C114.024 156.579 112.912 156.71 113.802 156.795C115.768 156.914 118.738 156.541 119.782 156.74C119.895 156.761 119.647 156.783 119.353 156.799C121.039 156.749 124.714 156.825 123.611 156.617C127.096 156.727 130.274 156.515 133.054 156.651C134.866 156.392 139.016 156.774 139.595 156.409C139.346 156.787 145.702 156.715 147.903 156.537C147.166 156.651 149.819 156.655 148.956 156.812C151.469 156.808 153.775 156.736 153.336 156.541C157.965 156.995 162.643 156.176 165.252 156.757C172.719 156.553 179.626 156.418 186.343 156.329C186.099 156.706 178.921 156.367 179.206 156.761C185.579 156.604 189.254 156.282 195.574 156.371C197.21 156.422 194.642 156.537 194.091 156.6C200.455 156.443 206.395 156.634 212.059 156.43C211.042 156.201 216.186 155.96 216.814 155.828C215.173 156.295 222.433 155.943 219.459 156.558C220.195 156.524 221.113 156.443 220.946 156.329C222.035 156.363 222.383 156.43 221.276 156.562C225.276 156.469 223.852 156.286 227.478 156.291C227.464 156.375 226.732 156.405 226.361 156.503C228.196 156.341 230.036 156.18 233.101 156.248C232.943 156.291 233.187 156.346 232.653 156.358C237.757 156.32 241.432 155.934 247.091 156.087C245.391 156.447 249.053 156.206 249.36 156.52L252.461 156.426L251.218 156.274C253.935 156.278 256.335 156.053 258.672 156.155L256.651 156.282L261.741 156.223L258.862 156.104C261.61 155.943 258.568 155.71 262.184 155.794C261.447 155.824 264.901 155.794 266.32 155.981H266.311C267.654 155.883 269.037 155.777 271.048 155.854C271.568 155.956 270.628 156.197 270.967 156.265C272.291 156.002 277.331 156.193 279.009 155.913C278.448 155.977 278.421 156.142 278.602 156.176L279.714 155.964C280.97 156.032 281.156 156.066 280.952 156.197C284.74 156.235 279.75 155.803 284.243 155.972C283.89 155.989 284.058 156.023 283.325 156.053C287.837 156.142 292.045 155.917 296.19 156.023C297.415 156.337 292.569 156.1 293.966 156.367C297.569 156.295 301.311 156.218 305 156.146C304.684 155.722 304.372 155.307 304.06 154.887L304.073 154.912ZM240.256 67.1846L240.32 67.3458L238.882 65.3525C238.909 65.3737 238.945 65.4034 238.982 65.4374C239.407 66.0269 239.831 66.6079 240.252 67.1846H240.256ZM260.349 94.7167C260.349 94.7167 260.317 94.6743 260.299 94.6531C260.313 94.67 260.322 94.6827 260.335 94.6997C260.335 94.7039 260.344 94.7124 260.344 94.7167H260.349ZM179.156 128.436C179.68 127.643 179.992 127.478 179.716 128.012C181.199 125.468 184.065 120.841 186.058 118.419L185.783 118.958C187.238 117.015 186.877 116.434 188.35 114.704L188.147 115.082C191.212 110.807 194.29 105.9 196.889 102.791C197.002 101.973 199.967 98.5886 199.719 98.0415C201.635 95.7006 201.228 96.4554 203.76 93.0627C204.42 92.1467 204.433 91.5105 205.175 90.3316L205.423 90.4418L206.25 88.7327L207.096 88.0669L207.774 86.9515C207.466 87.3714 207.046 87.804 207.023 87.6979C208.072 85.9507 210.002 83.686 210.147 83.7157L212.683 79.6105C212.705 79.7165 212.479 80.1237 212.235 80.552C213.108 79.0253 212.579 80.6029 213.614 78.686C213.383 78.915 213.573 78.4612 213.555 78.3891C213.872 78.0414 214.296 77.4901 214.762 76.8454C214.88 76.6843 215.002 76.5146 215.124 76.345L215.286 76.0906C215.359 76.1669 215.427 76.2432 215.49 76.3111C215.436 76.345 215.395 76.3917 215.363 76.451L215.408 76.5231L215.585 76.7733C215.856 77.1465 216.127 77.524 216.403 77.9057C216.963 78.6648 217.533 79.4366 218.112 80.2212C219.269 81.7904 220.453 83.4061 221.651 85.0262C220.878 83.809 221.344 83.9023 222.062 84.8438L222.098 85.3782C222.695 85.904 221.466 84.3179 222.564 85.4757C223.418 86.7141 222.88 86.4723 222.297 85.8192L223.45 87.2526C223.441 87.3841 223.152 87.0618 222.993 87.0279C223.581 87.541 224.598 89.7421 225.493 90.4588L225.484 90.586C227.88 93.8261 228.969 95.2977 230.917 97.9398C231.162 97.8592 231.867 98.9279 232.608 99.6149C233.951 101.612 235.352 103.886 237.07 106.235C238.367 107.825 237.594 106.608 238.254 107.274C238.154 107.516 239.868 109.857 238.851 108.724C240.921 111.532 241.49 112.312 244.225 115.794C244.022 115.357 243.741 114.899 243.967 115.086C244.465 115.713 244.953 116.613 244.795 116.579L244.65 116.422C247.828 120.255 250.779 126.04 253.478 128.988L253.329 128.822L254.626 130.417C254.897 130.756 254.947 130.794 255.047 130.896L255.368 131.235C255.571 131.549 255.408 131.401 255.255 131.273C255.087 131.133 254.952 131.061 254.934 131.15C255.001 131.21 255.065 131.265 255.119 131.316C255.056 131.35 254.943 131.371 254.816 131.388C254.64 131.405 254.649 131.413 254.292 131.418C253.406 131.409 252.579 131.405 251.769 131.401C250.156 131.375 248.614 131.341 246.82 131.456C243.886 130.824 236.41 131.502 232.45 131.095L232.68 131.244C231.659 131.388 231.442 131.159 230.687 131.125C230.795 131.239 231.799 131.261 231.162 131.341C222.492 131.519 213.266 131.125 204.375 130.989C201.124 130.951 202.53 131.761 198.43 131.405L199.592 131.129C193.033 131.46 186.176 131.116 179.753 131.401C180.137 131.337 180.146 131.252 180.774 131.256C180.078 131.155 178.776 131.155 177.669 131.201C177.728 131.121 177.791 131.036 177.85 130.951L178.555 129.467C178.772 129.153 179.052 128.945 178.862 129.31C179.888 127.982 178.772 129.153 179.138 128.44L179.156 128.436ZM71.9083 100.132C71.9218 100.26 71.7682 100.599 71.2845 101.354C71.2076 101.362 71.1127 101.358 71.0766 101.286L71.9083 100.132ZM170.803 126.863C170.509 126.439 170.143 125.909 169.758 125.349C169.745 125.183 169.912 125.268 170.152 125.62C169.971 125.459 170.5 126.307 170.803 126.863ZM168.375 123.385C168.122 123.033 167.905 122.732 167.765 122.541C167.891 122.715 168.068 122.961 168.375 123.385ZM113.21 43.1768C113.138 43.1683 113.061 43.1556 112.984 43.1471L113.088 43.0029L113.21 43.1768ZM112.64 43.6263C112.69 43.7917 112.78 44.0165 112.921 44.3049L112.907 44.3812L112.934 44.3388C113.074 44.6314 113.264 44.9792 113.517 45.4245L115.045 47.1802L115.303 47.8927L114.182 46.3108C114.652 47.3074 115.19 47.7951 115.732 48.3761C115.75 48.584 115.872 48.8851 116.098 49.2795L117.726 50.9292C117.748 51.2388 116.876 50.2634 117.667 51.5526C118.426 52.3244 117.391 50.5305 118.494 51.9088C118.964 52.9097 118.652 52.7231 119.529 53.7027C119.543 53.9063 119.33 53.7155 118.996 53.3211C119.76 54.1989 120.781 55.7893 121.31 56.1625C121.771 57.2227 123.584 59.3177 123.191 59.428C123.475 59.6782 124.61 60.9293 125.225 61.7902C123.724 60.45 127.467 65.0472 126.753 64.8903C127.923 65.8445 129.863 69.0252 131.508 70.9802C131.399 70.8827 131.182 70.6876 131.074 70.4925C131.861 71.68 131.992 72.0829 132.448 72.8759C132.846 72.8463 134.179 74.6232 135.047 75.4926C135.766 77.0999 134.098 74.8352 134.139 75.4502C134.324 75.2339 136.11 77.7912 135.969 77.1847C136.557 78.3891 136.543 78.1813 136.693 78.8938C137.194 78.8599 137.466 79.8777 138.324 80.6453C139.251 82.3417 138.266 81.2645 139.595 82.9354C140.06 83.8345 138.849 82.3629 138.849 82.3629C140.078 84.1398 139.699 83.0287 140.119 83.3086C141.674 85.3782 140.598 84.4112 140.96 85.2213C141.954 86.4978 142.913 87.3544 143.591 88.3468C143.595 88.4486 143.713 88.6479 143.5 88.4613C144.694 89.7251 146.402 92.6004 147.812 94.0593C147.871 94.195 147.894 94.2714 147.894 94.3138C147.849 93.966 147.962 93.8388 148.097 93.8303C148.658 94.6234 149.3 95.2001 149.327 95.6073C148.992 95.1153 148.893 95.1196 148.676 94.9287L149.336 95.7133C149.598 96.6208 148.454 94.6318 148.26 94.7506C149.476 96.324 151.013 98.084 151.808 99.3732C151.736 99.7888 149.693 96.5148 150.624 98.313L149.377 96.3282C150.005 98.0458 148.59 95.1408 149.105 96.7565C150.8 99.335 151.212 99.5131 152.902 102.083C153.44 102.567 152.979 101.765 153.517 102.249C156.279 105.684 154.851 105.467 157.034 107.902C157.68 108.483 158.186 108.551 159.326 110.535L158.593 110.069C160.275 112.541 159.981 111.218 161.581 113.903C161.152 113.517 160.139 112.032 160.365 112.427C161.301 114.229 161.351 113.504 162.241 114.785L162.173 115.205C164.076 117.762 166.183 120.586 168.289 123.419C168.104 123.305 167.679 122.859 168.072 123.585C169.162 125.039 170.26 126.608 171.336 128.194C172 129.191 172.669 130.192 173.329 131.184C172.281 131.248 171.227 131.362 170.753 131.231C170.671 131.21 170.857 131.189 171.065 131.172C169.908 131.227 167.331 131.146 168.099 131.358C165.69 131.248 163.489 131.46 161.563 131.324C160.311 131.583 157.436 131.201 157.038 131.566C157.21 131.189 152.812 131.261 151.289 131.439C151.799 131.324 149.964 131.32 150.561 131.163C148.821 131.167 147.229 131.239 147.532 131.435C144.327 130.981 141.091 131.799 139.287 131.218C134.121 131.422 129.338 131.558 124.691 131.647C124.859 131.269 129.831 131.608 129.628 131.214C125.22 131.371 122.675 131.693 118.304 131.604C117.174 131.553 118.946 131.439 119.33 131.375C114.928 131.532 110.814 131.341 106.895 131.545C107.6 131.774 104.038 132.016 103.604 132.147C104.739 131.685 99.7169 132.033 101.774 131.418C101.267 131.452 100.626 131.532 100.743 131.647C99.9881 131.613 99.7486 131.545 100.512 131.413C97.7461 131.507 98.727 131.689 96.2228 131.685C96.2318 131.6 96.7381 131.57 96.9957 131.473C95.7255 131.634 94.4508 131.795 92.3308 131.727C92.4438 131.685 92.2721 131.63 92.6427 131.617C89.1124 131.655 86.5675 132.041 82.6529 131.888C83.8282 131.528 81.2969 131.77 81.0844 131.456L78.9373 131.549L79.8007 131.702C77.9202 131.697 76.2568 131.922 74.643 131.82L76.0398 131.693L72.5185 131.753L74.512 131.871C72.6089 132.033 74.7154 132.266 72.2112 132.181C72.7174 132.151 70.3307 132.181 69.3498 131.994H69.3543C68.4232 132.092 67.4694 132.198 66.0772 132.122C65.7155 132.02 66.3664 131.774 66.1314 131.71C65.2138 131.973 61.7287 131.782 60.567 132.062C60.9557 131.999 60.9738 131.833 60.8472 131.799L60.0788 132.011C59.2064 131.943 59.0798 131.91 59.2199 131.778C56.5982 131.74 60.0517 132.172 56.9417 132.003C57.1858 131.986 57.0683 131.956 57.5791 131.922C56.0196 131.876 54.5098 131.91 53.0317 131.943C51.4089 131.973 50.4145 132.007 49.4697 131.952C49.6867 131.774 49.75 131.761 49.75 131.808C50.202 131.719 51.0699 131.812 50.8529 131.608C50.5998 131.617 50.3467 131.63 50.089 131.638C50.315 131.273 50.541 130.9 50.7716 130.527L52.2452 128.296C53.2306 126.816 54.2205 125.362 55.2331 124.017L54.7855 124.577C54.7042 123.898 56.6479 122.384 57.5971 120.692C57.3485 121.095 57.4525 121.337 57.4841 121.205C59.0843 119.115 60.5263 116.786 62.7322 113.478L62.5468 113.941C63.5413 112.741 64.9833 110.667 66.0048 109.339C66.1947 108.873 66.7688 108.109 66.2851 108.487C69.8742 104.67 71.7275 100.315 74.8826 96.905C74.5617 97.3503 74.2091 98.0203 74.4622 97.6641L76.65 94.4452C76.2975 94.5852 76.2477 94.793 75.6375 95.374C75.8228 94.9118 76.3879 93.966 76.9529 93.1857C76.0398 94.6785 77.2377 93.3468 77.7756 92.7955C77.649 92.8634 77.7439 92.6174 77.6535 92.6344C79.1497 91.1755 77.5089 92.1382 79.3396 90.0135V90.1916C79.9046 89.318 80.3476 88.4655 81.0302 87.5707C81.5003 87.3205 80.4742 88.5292 80.5962 88.6903C81.5048 87.4053 82.0382 85.9295 83.0688 84.8989C82.7072 85.4672 82.1964 86.2645 81.8348 86.837C82.9739 85.7259 83.0191 85.5393 83.7333 84.6275L83.661 84.7166L85.3244 82.6173L84.8633 83.1305C85.5007 81.2051 87.1144 79.8141 88.3304 77.4476C87.1416 79.7462 88.2671 77.9099 88.3756 78.2152C88.8321 77.7063 89.5057 76.9133 89.3972 77.1889C89.9486 76.0566 90.7668 75.5774 91.5353 73.9743C91.6528 73.9574 92.3263 72.8887 92.3444 73.2322C93.2439 71.8708 91.9918 73.4654 91.9828 73.2958C93.2078 71.099 95.7391 68.6901 97.5156 65.5391C99.0615 63.1345 99.2739 62.4094 100.508 60.4331L101.014 59.7333C101.394 59.428 100.662 60.6875 100.662 60.6875C101.688 59.4746 102.366 58.5035 103.148 57.2439C103.035 57.5281 103.27 57.3118 103.613 56.9937C104.291 56.014 103.817 56.1794 104.843 54.9708C104.766 55.2422 104.694 55.6027 104.436 56.1201C105.168 54.9284 105.896 53.7367 106.656 52.5068C107.008 52.2736 106.335 53.338 106.113 53.8088C107.013 52.4474 108.477 50.3015 108.572 49.7672L108.057 50.3736C108.215 50.2422 108.192 50.5136 108.016 50.8104C107.352 52.0445 106.764 52.405 106.646 52.422L107.207 51.5526C106.163 52.1463 104.843 54.9708 103.6 56.6459L103.763 55.9123L112.622 43.6221L112.64 43.6263ZM102.822 57.6468C102.614 57.8376 102.402 57.9649 102.393 57.8419L103.595 56.1752L102.822 57.6468ZM96.7471 65.6706C96.72 65.8106 96.6025 66.0905 96.2635 66.6927L95.7527 67.0489L96.7471 65.6706ZM275.989 116.82C275.989 116.82 275.984 116.82 275.98 116.82L274.778 115.149C274.8 115.162 274.832 115.179 274.863 115.205C275.23 115.726 275.605 116.265 275.989 116.82ZM263.798 99.6192C263.423 99.1569 263.052 98.6989 262.677 98.2197C263.061 98.6692 263.432 99.1357 263.798 99.6192ZM251.62 82.7997C251.471 82.6258 251.322 82.4519 251.168 82.2781C251.326 82.4562 251.467 82.6131 251.593 82.753C251.602 82.77 251.616 82.7827 251.625 82.7997H251.62ZM233.426 57.7825L232.698 56.7689C232.676 56.7138 232.658 56.6756 232.658 56.6544C233.042 57.1888 233.426 57.7274 233.792 58.2405C233.675 58.0963 233.553 57.9394 233.426 57.7825ZM230.615 53.6476L230.149 53.1005C230.343 53.3847 230.565 53.7027 230.795 54.0335C230.786 54.0505 230.764 54.0547 230.732 54.0378L228.992 51.6247L229.783 52.5238C230.054 52.8885 230.33 53.2617 230.615 53.6476ZM229.001 51.4763L228.721 51.2557L224.481 45.3736C225.805 47.1845 227.261 49.1395 229.001 51.4763ZM269.041 106.362C269.082 106.515 269.15 106.651 269.24 106.812C268.928 106.388 268.612 105.942 268.314 105.489C268.508 105.684 268.806 106.065 269.037 106.362H269.041ZM265.818 102.384C265.57 102.21 265.19 101.82 264.272 100.37L264.417 100.446C264.869 101.065 265.33 101.71 265.818 102.384ZM255.015 87.2908L254.992 87.2696C254.536 86.6632 254.084 86.0228 253.605 85.3612C253.826 85.5987 254.197 86.0779 255.015 87.2908ZM223.983 43.8002C224.232 44.114 224.426 44.3854 224.585 44.6272C224.386 44.3515 224.182 44.0716 223.983 43.8002ZM217.397 35.3862C218.161 36.4464 218.912 37.4855 219.648 38.5033L219.061 37.6551C219.061 37.6551 219.106 37.6975 219.129 37.7187C219.346 37.9944 219.572 38.27 219.802 38.5457C219.929 38.7238 220.064 38.9189 220.209 39.131C220.191 39.1903 220.01 39.0249 219.933 38.9868C220.155 39.2327 220.385 39.4872 220.607 39.7204C221.335 40.8104 222.211 42.1378 223.106 43.2828C222.691 42.7357 222.469 42.6212 222.6 42.7612C222.7 42.9011 222.804 43.0453 222.903 43.1895L215.558 32.9986C215.567 32.9774 215.58 32.9519 215.585 32.935C215.802 33.2234 216.014 33.5117 216.227 33.8001C216.62 34.3345 217.009 34.8646 217.393 35.3905L217.397 35.3862ZM215.286 32.5236C215.372 32.6381 215.454 32.7484 215.535 32.8586C215.521 32.8756 215.512 32.8926 215.499 32.9095L215.314 32.6508L215.323 32.6211L215.309 32.6423L215.268 32.5872L215.092 32.8417C215.092 32.8417 215.092 32.8247 215.092 32.812C215.155 32.7144 215.223 32.6169 215.286 32.5194V32.5236ZM201.938 50.6196C201.925 50.6493 201.911 50.679 201.902 50.7044C201.87 50.7383 201.839 50.7808 201.807 50.8147L201.938 50.6154V50.6196ZM175.49 88.9829C175.49 88.9829 175.49 88.9999 175.49 89.0126L175.467 89.0381L175.495 88.9829H175.49ZM157.142 63.2024C157.142 63.2024 157.111 63.1727 157.093 63.1515L156.378 62.2143C155.84 61.4848 155.443 60.8996 155.135 60.4034L157.142 63.2024ZM135.639 32.5618C136.006 33.0749 136.313 33.5117 136.512 33.7916C136.331 33.5372 136.078 33.1809 135.635 32.566L135.639 32.5618ZM53.5515 82.647C53.5199 82.6725 53.4928 82.6852 53.4747 82.6937C53.5696 82.5876 53.5877 82.5834 53.5515 82.647Z" fill="url(#paint0_linear_2315_684)" fill-opacity="0.6"/>
<defs>
<linearGradient id="paint0_linear_2315_684" x1="0" y1="78.4916" x2="238.782" y2="78.4916" gradientUnits="userSpaceOnUse">
<stop stop-color="#717171"/>
<stop offset="0.5" stop-color="#CACACA"/>
<stop offset="1" stop-color="white"/>
</linearGradient>
</defs>
</svg>
