<svg width="26" height="33" viewBox="0 0 26 33" fill="none" xmlns="http://www.w3.org/2000/svg">
<path fill-rule="evenodd" clip-rule="evenodd" d="M9.13165 0.843156L8.28594 0L5.04823 3.22801L8.28594 6.45606L9.13165 5.61286L7.33764 3.82422H19.4003V2.6318H7.33764L9.13165 0.843156ZM1.36325 11.7491L1.92463 10.4908L3.29762 10.3469L9.12006 18.3376L10.088 17.6364L8.66154 15.6804L9.22316 14.421L10.5959 14.2783L12.0228 16.2349L12.9908 15.5337L12.0545 14.1167L12.6161 12.8573L13.9889 12.7146L14.9256 14.1322L15.8935 13.4311L15.1896 12.4651L15.751 11.2068L17.124 11.063L21.3973 16.927L23.2112 23.4729L25.0324 25.9721L26 25.2712L24.3063 22.9469L22.4921 16.4001L17.6951 9.81802L14.9499 10.1068L14.3877 11.3656L11.8147 11.7575L11.254 13.0186L8.42175 13.3212L7.8608 14.5824L3.86926 9.1035L1.12358 9.39076L0 11.9063L5.4845 19.4335L3.62259 24.9936L7.01754 29.6524L15.3303 33L16.4713 32.1735L7.78351 28.6748L4.95195 24.7892L6.34838 20.6191L9.73276 25.2633L10.7002 24.5625L1.36325 11.7491Z" fill="white"/>
<path fill-rule="evenodd" clip-rule="evenodd" d="M9.13165 0.843156L8.28594 0L5.04823 3.22801L8.28594 6.45606L9.13165 5.61286L7.33764 3.82422H19.4003V2.6318H7.33764L9.13165 0.843156ZM1.36325 11.7491L1.92463 10.4908L3.29762 10.3469L9.12006 18.3376L10.088 17.6364L8.66154 15.6804L9.22316 14.421L10.5959 14.2783L12.0228 16.2349L12.9908 15.5337L12.0545 14.1167L12.6161 12.8573L13.9889 12.7146L14.9256 14.1322L15.8935 13.4311L15.1896 12.4651L15.751 11.2068L17.124 11.063L21.3973 16.927L23.2112 23.4729L25.0324 25.9721L26 25.2712L24.3063 22.9469L22.4921 16.4001L17.6951 9.81802L14.9499 10.1068L14.3877 11.3656L11.8147 11.7575L11.254 13.0186L8.42175 13.3212L7.8608 14.5824L3.86926 9.1035L1.12358 9.39076L0 11.9063L5.4845 19.4335L3.62259 24.9936L7.01754 29.6524L15.3303 33L16.4713 32.1735L7.78351 28.6748L4.95195 24.7892L6.34838 20.6191L9.73276 25.2633L10.7002 24.5625L1.36325 11.7491Z" fill="url(#paint0_linear_2633_5984)"/>
<defs>
<linearGradient id="paint0_linear_2633_5984" x1="0" y1="16.5" x2="20.3552" y2="16.5" gradientUnits="userSpaceOnUse">
<stop stop-color="#007227"/>
<stop offset="1" stop-color="#81D100"/>
</linearGradient>
</defs>
</svg>
